<svg width="420" height="286" viewBox="0 0 420 286" fill="none" xmlns="http://www.w3.org/2000/svg">
<path fill-rule="evenodd" clip-rule="evenodd" d="M220.124 10.707C197.923 20.0346 179.099 35.2228 163.653 56.2716L78.251 172.651C77.4713 171.278 76.7355 169.883 76.0437 168.465C69.9729 156.392 67.5486 144.001 68.7708 131.291C69.715 118.378 74.3535 106.244 82.6863 94.8892C87.9705 87.6883 94.3023 81.6756 101.682 76.8511C109.264 71.7496 117.414 67.9108 126.129 65.3346C134.845 62.7584 143.266 61.4554 151.393 61.4255L135.673 0.884728C116.179 0.709485 96.8231 6.15966 77.6048 17.2353C58.3117 27.8314 41.4502 42.9615 27.0203 62.6255C11.5742 83.6743 2.75747 106.152 0.570172 130.06C-1.61714 153.967 2.48865 177.146 12.8875 199.597C23.2117 221.568 39.3537 240.553 61.3135 256.55C82.7173 272.142 105.63 281.609 130.053 284.949C154.4 287.811 177.675 284.578 199.876 275.25C222.077 265.922 240.901 250.734 256.347 229.685C269.964 211.129 279.256 190.91 284.223 169.028C289.115 146.666 288.939 126.561 283.693 108.714L221.025 112.151C222.926 121.186 223.929 129.992 224.034 138.569C224.138 147.145 222.864 155.567 220.21 163.834C217.481 171.621 213.475 179.116 208.191 186.316C200.264 197.118 190.27 204.925 178.207 209.738C166.144 214.55 153.456 216.145 140.143 214.523C136.4 214.066 132.722 213.338 129.109 212.338L157.707 173.367L181.285 141.236L197.005 119.815L211.809 99.6405C219.736 88.8391 229.73 81.032 241.793 76.2193C253.856 71.4066 266.544 69.8115 279.857 71.4342C293.169 73.0569 305.663 78.1208 317.338 86.6256C329.291 95.333 338.163 105.622 343.956 117.492C350.027 129.564 352.451 141.956 351.229 154.666C350.285 167.578 345.646 179.712 337.314 191.068C332.029 198.269 325.698 204.281 318.318 209.106C310.735 214.207 302.586 218.046 293.871 220.622C285.155 223.198 276.734 224.501 268.607 224.531L284.327 285.072C303.821 285.247 323.177 279.797 342.395 268.722C361.688 258.126 378.55 242.995 392.98 223.331C408.426 202.283 417.242 179.805 419.43 155.897C421.617 131.99 417.511 108.811 407.112 86.3599C396.788 64.3885 380.646 45.4043 358.686 29.407C337.283 13.8148 314.369 4.34823 289.947 1.0075C265.6 -1.85377 242.325 1.3794 220.124 10.707Z" fill="white"/>
</svg>