<svg xmlns="http://www.w3.org/2000/svg" xmlns:xlink="http://www.w3.org/1999/xlink" xmlns:lucid="lucid" width="696" height="263.85"><g transform="translate(-471.9999999999999 -205)" lucid:page-tab-id="0_0"><path d="M600 336.92h32a12 12 0 0 0 12-12V258.8a12 12 0 0 1 12-12h32" stroke="#333" fill="none"/><path d="M600 337.4h-.5v-.95h.5zM688.5 247.28h-.5v-.95h.5z" stroke="#333" stroke-width=".05" fill="#333"/><path d="M862 246.8h87" stroke="#ccc" stroke-width="2" fill="none"/><path d="M862.03 247.78H861v-1.95h1.03zM950 247.77h-1.03v-1.95H950z" stroke="#ccc" stroke-width=".05" fill="#ccc"/><path d="M600 336.92h32a12 12 0 0 0 12-12v-6.6a12 12 0 0 1 12-12h32" stroke="#333" fill="none"/><path d="M600 337.4h-.5v-.95h.5zM688.5 306.78h-.5v-.95h.5z" stroke="#333" stroke-width=".05" fill="#333"/><path d="M862 306.3h87" stroke="#ccc" stroke-width="2" fill="none"/><path d="M862.03 307.28H861v-1.95h1.03zM950 307.3h-1.03v-1.96H950z" stroke="#ccc" stroke-width=".05" fill="#ccc"/><path d="M600 336.92h32a12 12 0 0 1 12 12v15.03a12 12 0 0 0 12 12h32" stroke="#333" fill="none"/><path d="M600 337.4h-.5v-.95h.5zM688.5 376.42h-.5v-.95h.5z" stroke="#333" stroke-width=".05" fill="#333"/><path d="M862 375.95h87" stroke="#ccc" stroke-width="2" fill="none"/><path d="M862.03 376.92H861v-1.95h1.03zM950 376.93h-1.03v-1.95H950z" stroke="#ccc" stroke-width=".05" fill="#ccc"/><path d="M600 336.92h32a12 12 0 0 1 12 12v66.13a12 12 0 0 0 12 12h32" stroke="#333" fill="none"/><path d="M600 337.4h-.5v-.95h.5zM688.5 427.53h-.5v-.95h.5z" stroke="#333" stroke-width=".05" fill="#333"/><path d="M862 427.05h87" stroke="#ccc" stroke-width="2" fill="none"/><path d="M862.03 428.03H861v-1.95h1.03zM950 428.02h-1.03v-1.95H950z" stroke="#ccc" stroke-width=".05" fill="#ccc"/><path d="M492 321.36a8 8 0 0 1 8-8h91.5a8 8 0 0 1 8 8v31.13a8 8 0 0 1-8 8H500a8 8 0 0 1-8-8z" stroke="#000" stroke-opacity="0" fill="#4397ff"/><use xlink:href="#a" transform="matrix(1,0,0,1,501.9999999999999,326.796875) translate(22.3924853515625 16.216875)"/><path d="M688.5 233a8 8 0 0 1 8-8H853a8 8 0 0 1 8 8v27.6a8 8 0 0 1-8 8H696.5a8 8 0 0 1-8-8z" stroke="#000" stroke-opacity="0" fill="#ffa0a0"/><use xlink:href="#b" transform="matrix(1,0,0,1,698.4999999999999,236.67335345463238) translate(23.435507812499992 16.216875)"/><path d="M950 238.67a4 4 0 0 1 4-4h190a4 4 0 0 1 4 4v16.26a4 4 0 0 1-4 4H954a4 4 0 0 1-4-4z" fill="#fff"/><use xlink:href="#c" transform="matrix(1,0,0,1,951.9999999999999,236.671875) translate(0 16.216875)"/><use xlink:href="#d" transform="matrix(1,0,0,1,951.9999999999999,236.671875) translate(24.366181640625 16.216875)"/><path d="M688.5 292.5a8 8 0 0 1 8-8H853a8 8 0 0 1 8 8v27.6a8 8 0 0 1-8 8H696.5a8 8 0 0 1-8-8z" stroke="#000" stroke-opacity="0" fill="#ffb781"/><use xlink:href="#e" transform="matrix(1,0,0,1,698.4999999999999,296.1811659546324) translate(54.7862255859375 16.216875)"/><path d="M950 277.93a4 4 0 0 1 4-4h190a4 4 0 0 1 4 4v56.76a4 4 0 0 1-4 4H954a4 4 0 0 1-4-4z" fill="#fff"/><use xlink:href="#f" transform="matrix(1,0,0,1,951.9999999999999,275.9296875) translate(0 16.216875)"/><use xlink:href="#g" transform="matrix(1,0,0,1,951.9999999999999,275.9296875) translate(49.631484375000014 16.216875)"/><use xlink:href="#h" transform="matrix(1,0,0,1,951.9999999999999,275.9296875) translate(104.32256835937503 16.216875)"/><use xlink:href="#i" transform="matrix(1,0,0,1,951.9999999999999,275.9296875) translate(138.57090820312504 16.216875)"/><use xlink:href="#j" transform="matrix(1,0,0,1,951.9999999999999,275.9296875) translate(0 36.47162109375)"/><use xlink:href="#k" transform="matrix(1,0,0,1,951.9999999999999,275.9296875) translate(105.31160156250002 36.47162109375)"/><use xlink:href="#l" transform="matrix(1,0,0,1,951.9999999999999,275.9296875) translate(0 56.7263671875)"/><use xlink:href="#d" transform="matrix(1,0,0,1,951.9999999999999,275.9296875) translate(61.52440429687501 56.7263671875)"/><path d="M688.5 362.15a8 8 0 0 1 8-8H853a8 8 0 0 1 8 8v27.6a8 8 0 0 1-8 8H696.5a8 8 0 0 1-8-8z" stroke="#000" stroke-opacity="0" fill="#ffd99a"/><use xlink:href="#m" transform="matrix(1,0,0,1,698.4999999999999,365.8217909546324) translate(34.5478271484375 16.216875)"/><path d="M950 357.7a4 4 0 0 1 4-4h190a4 4 0 0 1 4 4v36.5a4 4 0 0 1-4 4H954a4 4 0 0 1-4-4z" fill="#fff"/><use xlink:href="#f" transform="matrix(1,0,0,1,951.9999999999999,355.6953125) translate(0 16.216875)"/><use xlink:href="#g" transform="matrix(1,0,0,1,951.9999999999999,355.6953125) translate(49.631484375000014 16.216875)"/><use xlink:href="#h" transform="matrix(1,0,0,1,951.9999999999999,355.6953125) translate(104.32256835937503 16.216875)"/><use xlink:href="#i" transform="matrix(1,0,0,1,951.9999999999999,355.6953125) translate(138.57090820312504 16.216875)"/><use xlink:href="#d" transform="matrix(1,0,0,1,951.9999999999999,355.6953125) translate(0 36.47162109375)"/><path d="M688.5 413.25a8 8 0 0 1 8-8H853a8 8 0 0 1 8 8v27.6a8 8 0 0 1-8 8H696.5a8 8 0 0 1-8-8z" stroke="#000" stroke-opacity="0" fill="#83e0e1"/><use xlink:href="#n" transform="matrix(1,0,0,1,698.4999999999999,416.9233534546324) translate(37.98083496093749 16.216875)"/><path d="M950 418.92a4 4 0 0 1 4-4h190a4 4 0 0 1 4 4v16.26a4 4 0 0 1-4 4H954a4 4 0 0 1-4-4z" fill="#fff"/><use xlink:href="#o" transform="matrix(1,0,0,1,951.9999999999999,416.921875) translate(0 16.216875)"/><use xlink:href="#d" transform="matrix(1,0,0,1,951.9999999999999,416.921875) translate(44.80892578125001 16.216875)"/><path d="M600 336.92h32a12 12 0 0 0 12-12V258.8a12 12 0 0 1 12-12h32" stroke="#333" fill="none"/><path d="M600 337.4h-.5v-.95h.5zM688.5 247.28h-.5v-.95h.5z" stroke="#333" stroke-width=".05" fill="#333"/><path d="M600 336.92h32a12 12 0 0 0 12-12v-6.6a12 12 0 0 1 12-12h32" stroke="#333" fill="none"/><path d="M600 337.4h-.5v-.95h.5zM688.5 306.78h-.5v-.95h.5z" stroke="#333" stroke-width=".05" fill="#333"/><path d="M862 306.3h87" stroke="#ccc" stroke-width="2" fill="none"/><path d="M862.03 307.28H861v-1.95h1.03zM950 307.3h-1.03v-1.96H950z" stroke="#ccc" stroke-width=".05" fill="#ccc"/><path d="M600 336.92h32a12 12 0 0 1 12 12v15.03a12 12 0 0 0 12 12h32" stroke="#333" fill="none"/><path d="M600 337.4h-.5v-.95h.5zM688.5 376.42h-.5v-.95h.5z" stroke="#333" stroke-width=".05" fill="#333"/><path d="M862 375.95h87" stroke="#ccc" stroke-width="2" fill="none"/><path d="M862.03 376.92H861v-1.95h1.03zM950 376.93h-1.03v-1.95H950z" stroke="#ccc" stroke-width=".05" fill="#ccc"/><path d="M600 336.92h32a12 12 0 0 1 12 12v66.13a12 12 0 0 0 12 12h32" stroke="#333" fill="none"/><path d="M600 337.4h-.5v-.95h.5zM688.5 427.53h-.5v-.95h.5z" stroke="#333" stroke-width=".05" fill="#333"/><path d="M862 427.05h87" stroke="#ccc" stroke-width="2" fill="none"/><path d="M862.03 428.03H861v-1.95h1.03zM950 428.02h-1.03v-1.95H950z" stroke="#ccc" stroke-width=".05" fill="#ccc"/><path d="M492 321.36a8 8 0 0 1 8-8h91.5a8 8 0 0 1 8 8v31.13a8 8 0 0 1-8 8H500a8 8 0 0 1-8-8z" stroke="#000" stroke-opacity="0" fill="#4397ff"/><use xlink:href="#a" transform="matrix(1,0,0,1,501.9999999999999,326.796875) translate(22.3924853515625 16.216875)"/><path d="M688.5 233a8 8 0 0 1 8-8H853a8 8 0 0 1 8 8v27.6a8 8 0 0 1-8 8H696.5a8 8 0 0 1-8-8z" stroke="#000" stroke-opacity="0" fill="#ffa0a0"/><use xlink:href="#b" transform="matrix(1,0,0,1,698.4999999999999,236.67335345463238) translate(23.435507812499992 16.216875)"/><path d="M950 238.67a4 4 0 0 1 4-4h190a4 4 0 0 1 4 4v16.26a4 4 0 0 1-4 4H954a4 4 0 0 1-4-4z" fill="#fff"/><use xlink:href="#c" transform="matrix(1,0,0,1,951.9999999999999,236.671875) translate(0 16.216875)"/><use xlink:href="#d" transform="matrix(1,0,0,1,951.9999999999999,236.671875) translate(24.366181640625 16.216875)"/><path d="M688.5 292.5a8 8 0 0 1 8-8H853a8 8 0 0 1 8 8v27.6a8 8 0 0 1-8 8H696.5a8 8 0 0 1-8-8z" stroke="#000" stroke-opacity="0" fill="#ffb781"/><g><use xlink:href="#e" transform="matrix(1,0,0,1,698.4999999999999,296.1811659546324) translate(54.7862255859375 16.216875)"/></g><path d="M950 277.93a4 4 0 0 1 4-4h190a4 4 0 0 1 4 4v56.76a4 4 0 0 1-4 4H954a4 4 0 0 1-4-4z" fill="#fff"/><g><use xlink:href="#f" transform="matrix(1,0,0,1,951.9999999999999,275.9296875) translate(0 16.216875)"/><use xlink:href="#g" transform="matrix(1,0,0,1,951.9999999999999,275.9296875) translate(49.631484375000014 16.216875)"/><use xlink:href="#h" transform="matrix(1,0,0,1,951.9999999999999,275.9296875) translate(104.32256835937503 16.216875)"/><use xlink:href="#i" transform="matrix(1,0,0,1,951.9999999999999,275.9296875) translate(138.57090820312504 16.216875)"/><use xlink:href="#j" transform="matrix(1,0,0,1,951.9999999999999,275.9296875) translate(0 36.47162109375)"/><use xlink:href="#k" transform="matrix(1,0,0,1,951.9999999999999,275.9296875) translate(105.31160156250002 36.47162109375)"/><use xlink:href="#l" transform="matrix(1,0,0,1,951.9999999999999,275.9296875) translate(0 56.7263671875)"/><use xlink:href="#d" transform="matrix(1,0,0,1,951.9999999999999,275.9296875) translate(61.52440429687501 56.7263671875)"/></g><path d="M688.5 362.15a8 8 0 0 1 8-8H853a8 8 0 0 1 8 8v27.6a8 8 0 0 1-8 8H696.5a8 8 0 0 1-8-8z" stroke="#000" stroke-opacity="0" fill="#ffd99a"/><g><use xlink:href="#m" transform="matrix(1,0,0,1,698.4999999999999,365.8217909546324) translate(34.5478271484375 16.216875)"/></g><path d="M950 357.7a4 4 0 0 1 4-4h190a4 4 0 0 1 4 4v36.5a4 4 0 0 1-4 4H954a4 4 0 0 1-4-4z" fill="#fff"/><g><use xlink:href="#f" transform="matrix(1,0,0,1,951.9999999999999,355.6953125) translate(0 16.216875)"/><use xlink:href="#g" transform="matrix(1,0,0,1,951.9999999999999,355.6953125) translate(49.631484375000014 16.216875)"/><use xlink:href="#h" transform="matrix(1,0,0,1,951.9999999999999,355.6953125) translate(104.32256835937503 16.216875)"/><use xlink:href="#i" transform="matrix(1,0,0,1,951.9999999999999,355.6953125) translate(138.57090820312504 16.216875)"/><use xlink:href="#d" transform="matrix(1,0,0,1,951.9999999999999,355.6953125) translate(0 36.47162109375)"/></g><path d="M688.5 413.25a8 8 0 0 1 8-8H853a8 8 0 0 1 8 8v27.6a8 8 0 0 1-8 8H696.5a8 8 0 0 1-8-8z" stroke="#000" stroke-opacity="0" fill="#83e0e1"/><g><use xlink:href="#n" transform="matrix(1,0,0,1,698.4999999999999,416.9233534546324) translate(37.98083496093749 16.216875)"/></g><path d="M950 418.92a4 4 0 0 1 4-4h190a4 4 0 0 1 4 4v16.26a4 4 0 0 1-4 4H954a4 4 0 0 1-4-4z" fill="#fff"/><g><use xlink:href="#o" transform="matrix(1,0,0,1,951.9999999999999,416.921875) translate(0 16.216875)"/><use xlink:href="#d" transform="matrix(1,0,0,1,951.9999999999999,416.921875) translate(44.80892578125001 16.216875)"/></g><defs><path d="M180 0v-1490h510c348 0 508 194 508 460 0 198-88 351-276 417L1256 0h-220L726-579c-117 2-238 0-356 1V0H180zm190-747h312c235 0 327-108 327-283 0-177-92-293-329-293H370v576" id="p"/><path d="M613 24c-304 0-509-231-509-576 0-350 205-580 509-580 305 0 511 230 511 580 0 345-206 576-511 576zm0-161c226 0 329-195 329-415 0-222-103-419-329-419-223 0-326 196-326 419 0 220 103 415 326 415" id="q"/><path d="M338-1490V0H158v-1490h180" id="r"/><path d="M628 24c-324 0-524-230-524-574 0-343 198-582 503-582 237 0 487 146 487 559v75H286c9 234 145 362 343 362 132 0 231-58 273-172l174 48C1024-91 857 24 628 24zM287-650h624c-17-190-120-322-304-322-192 0-309 151-320 322" id="s"/><path d="M538 24C308 24 148-78 108-271l171-41c32 123 123 178 257 178 156 0 256-77 256-169 0-77-54-128-164-154l-186-44c-203-48-300-148-300-305 0-192 176-326 414-326 230 0 351 112 402 269l-163 42c-31-80-94-158-238-158-133 0-233 69-233 162 0 83 57 129 188 160l169 40c203 48 298 149 298 302 0 196-179 339-441 339" id="t"/><g id="a"><use transform="matrix(0.008173828125000001,0,0,0.008173828125000001,0,0)" xlink:href="#p"/><use transform="matrix(0.008173828125000001,0,0,0.008173828125000001,10.527890625000001,0)" xlink:href="#q"/><use transform="matrix(0.008173828125000001,0,0,0.008173828125000001,20.565351562500002,0)" xlink:href="#r"/><use transform="matrix(0.008173828125000001,0,0,0.008173828125000001,24.619570312500002,0)" xlink:href="#s"/><use transform="matrix(0.008173828125000001,0,0,0.008173828125000001,34.37912109375,0)" xlink:href="#t"/></g><path d="M52 0l541-1490h220L1361 0h-200l-149-416H398L254 0H52zm404-582h497c-103-290-145-390-251-756-108 377-145 460-246 756" id="u"/><path d="M577 24c-279 0-473-224-473-580 0-354 195-576 474-576 218 0 287 134 324 193h14v-551h180V0H922v-173h-20C865-111 790 24 577 24zm27-161c203 0 314-172 314-421 0-247-108-413-314-413-212 0-317 181-317 413 0 235 108 421 317 421" id="v"/><path d="M158 0v-1118h175l1 205c55-151 181-225 313-225 147 0 245 90 285 228 53-141 190-228 352-228 194 0 352 125 352 384V0h-181v-749c0-161-105-225-225-225-151 0-243 103-243 244V0H807v-767c0-124-93-207-219-207-131 0-250 92-250 270V0H158" id="w"/><path d="M158 0v-1118h180V0H158zm91-1301c-68 0-125-53-125-119s57-119 125-119c69 0 126 53 126 119s-57 119-126 119" id="x"/><path d="M338-670V0H158v-1118h173l1 207c72-158 192-221 342-221 226 0 378 139 378 422V0H872v-695c0-172-96-275-252-275-161 0-282 109-282 300" id="y"/><path d="M598-1118v154H368v674c0 100 37 144 132 144 23 0 62-6 92-12L629-6c-37 13-88 20-134 20-193 0-307-107-307-290v-688H20v-154h168v-266h180v266h230" id="z"/><path d="M158 0v-1118h174v172h12c41-113 157-188 290-188 26 0 70 2 91 3v181c-11-2-60-10-108-10-161 0-279 109-279 260V0H158" id="A"/><path d="M471 26C259 26 90-98 90-318c0-256 228-303 435-329 202-27 287-16 287-108 0-139-79-219-234-219-161 0-248 86-283 164l-173-57c86-203 278-265 451-265 150 0 419 46 419 395V0H815v-152h-12C765-73 660 26 471 26zm31-159c199 0 310-134 310-271v-155c-30 35-226 55-295 64-131 17-246 59-246 186 0 116 97 176 231 176" id="B"/><g id="b"><use transform="matrix(0.008173828125000001,0,0,0.008173828125000001,0,0)" xlink:href="#u"/><use transform="matrix(0.008173828125000001,0,0,0.008173828125000001,11.549619140625001,0)" xlink:href="#v"/><use transform="matrix(0.008173828125000001,0,0,0.008173828125000001,21.799599609375,0)" xlink:href="#w"/><use transform="matrix(0.008173828125000001,0,0,0.008173828125000001,36.46344726562501,0)" xlink:href="#x"/><use transform="matrix(0.008173828125000001,0,0,0.008173828125000001,40.51766601562501,0)" xlink:href="#y"/><use transform="matrix(0.008173828125000001,0,0,0.008173828125000001,50.40799804687501,0)" xlink:href="#x"/><use transform="matrix(0.008173828125000001,0,0,0.008173828125000001,54.46221679687501,0)" xlink:href="#t"/><use transform="matrix(0.008173828125000001,0,0,0.008173828125000001,63.29812500000001,0)" xlink:href="#z"/><use transform="matrix(0.008173828125000001,0,0,0.008173828125000001,68.77458984375001,0)" xlink:href="#A"/><use transform="matrix(0.008173828125000001,0,0,0.008173828125000001,75.07661132812501,0)" xlink:href="#B"/><use transform="matrix(0.008173828125000001,0,0,0.008173828125000001,84.47651367187501,0)" xlink:href="#z"/><use transform="matrix(0.008173828125000001,0,0,0.008173828125000001,89.78950195312501,0)" xlink:href="#q"/><use transform="matrix(0.008173828125000001,0,0,0.008173828125000001,99.82696289062501,0)" xlink:href="#A"/></g><g id="c"><use transform="matrix(0.008173828125000001,0,0,0.008173828125000001,0,0)" xlink:href="#u"/><use transform="matrix(0.008173828125000001,0,0,0.008173828125000001,11.549619140625001,0)" xlink:href="#r"/><use transform="matrix(0.008173828125000001,0,0,0.008173828125000001,15.603837890625002,0)" xlink:href="#r"/></g><path d="M158 418v-1536h174v179h20c37-59 106-193 324-193 279 0 474 222 474 576 0 356-194 580-473 580-213 0-288-135-325-197h-14v591H158zm492-555c209 0 317-186 317-421 0-232-105-413-317-413-206 0-314 166-314 413 0 249 111 421 314 421" id="C"/><g id="d"><use transform="matrix(0.008173828125000001,0,0,0.008173828125000001,0,0)" xlink:href="#C"/><use transform="matrix(0.008173828125000001,0,0,0.008173828125000001,10.249980468750001,0)" xlink:href="#s"/><use transform="matrix(0.008173828125000001,0,0,0.008173828125000001,20.009531250000002,0)" xlink:href="#A"/><use transform="matrix(0.008173828125000001,0,0,0.008173828125000001,26.573115234375003,0)" xlink:href="#w"/><use transform="matrix(0.008173828125000001,0,0,0.008173828125000001,41.236962890625,0)" xlink:href="#x"/><use transform="matrix(0.008173828125000001,0,0,0.008173828125000001,45.29118164062501,0)" xlink:href="#t"/><use transform="matrix(0.008173828125000001,0,0,0.008173828125000001,54.127089843750014,0)" xlink:href="#t"/><use transform="matrix(0.008173828125000001,0,0,0.008173828125000001,62.962998046875015,0)" xlink:href="#x"/><use transform="matrix(0.008173828125000001,0,0,0.008173828125000001,67.01721679687502,0)" xlink:href="#q"/><use transform="matrix(0.008173828125000001,0,0,0.008173828125000001,77.05467773437502,0)" xlink:href="#y"/><use transform="matrix(0.008173828125000001,0,0,0.008173828125000001,86.94500976562502,0)" xlink:href="#t"/></g><path d="M98-1322v-168h1126v168H757V0H567v-1322H98" id="D"/><g id="e"><use transform="matrix(0.008173828125000001,0,0,0.008173828125000001,0,0)" xlink:href="#D"/><use transform="matrix(0.008173828125000001,0,0,0.008173828125000001,9.49798828125,0)" xlink:href="#s"/><use transform="matrix(0.008173828125000001,0,0,0.008173828125000001,19.2575390625,0)" xlink:href="#r"/><use transform="matrix(0.008173828125000001,0,0,0.008173828125000001,23.3117578125,0)" xlink:href="#r"/><use transform="matrix(0.008173828125000001,0,0,0.008173828125000001,27.365976562500002,0)" xlink:href="#s"/><use transform="matrix(0.008173828125000001,0,0,0.008173828125000001,37.12552734375001,0)" xlink:href="#A"/></g><path d="M128 359l88-567h206L266 359H128" id="E"/><g id="f"><use transform="matrix(0.008173828125000001,0,0,0.008173828125000001,0,0)" xlink:href="#p"/><use transform="matrix(0.008173828125000001,0,0,0.008173828125000001,10.527890625000001,0)" xlink:href="#s"/><use transform="matrix(0.008173828125000001,0,0,0.008173828125000001,20.45091796875,0)" xlink:href="#B"/><use transform="matrix(0.008173828125000001,0,0,0.008173828125000001,29.850820312500005,0)" xlink:href="#v"/><use transform="matrix(0.008173828125000001,0,0,0.008173828125000001,40.10080078125001,0)" xlink:href="#E"/></g><path d="M613 24c-304 0-509-231-509-576 0-350 205-580 509-580 216 0 392 114 453 309l-173 49c-33-115-133-197-280-197-223 0-326 196-326 419 0 220 103 415 326 415 150 0 252-85 285-206l172 49C1010-95 832 24 613 24" id="F"/><g id="g"><use transform="matrix(0.008173828125000001,0,0,0.008173828125000001,0,0)" xlink:href="#F"/><use transform="matrix(0.008173828125000001,0,0,0.008173828125000001,9.563378906250001,0)" xlink:href="#A"/><use transform="matrix(0.008173828125000001,0,0,0.008173828125000001,15.587490234375002,0)" xlink:href="#s"/><use transform="matrix(0.008173828125000001,0,0,0.008173828125000001,25.510517578125004,0)" xlink:href="#B"/><use transform="matrix(0.008173828125000001,0,0,0.008173828125000001,34.910419921875004,0)" xlink:href="#z"/><use transform="matrix(0.008173828125000001,0,0,0.008173828125000001,40.223408203125004,0)" xlink:href="#s"/></g><g id="h"><use transform="matrix(0.008173828125000001,0,0,0.008173828125000001,0,0)" xlink:href="#B"/><use transform="matrix(0.008173828125000001,0,0,0.008173828125000001,9.399902343750002,0)" xlink:href="#y"/><use transform="matrix(0.008173828125000001,0,0,0.008173828125000001,19.290234375000004,0)" xlink:href="#v"/></g><path d="M537 14c-226 0-379-139-379-422v-710h180v695c0 172 97 275 253 275 160 0 281-109 281-300v-670h181V0H879v-209C806-46 684 14 537 14" id="G"/><g id="i"><use transform="matrix(0.008173828125000001,0,0,0.008173828125000001,0,0)" xlink:href="#G"/><use transform="matrix(0.008173828125000001,0,0,0.008173828125000001,9.898505859375001,0)" xlink:href="#C"/><use transform="matrix(0.008173828125000001,0,0,0.008173828125000001,20.148486328125003,0)" xlink:href="#v"/><use transform="matrix(0.008173828125000001,0,0,0.008173828125000001,30.398466796875006,0)" xlink:href="#B"/><use transform="matrix(0.008173828125000001,0,0,0.008173828125000001,39.798369140625006,0)" xlink:href="#z"/><use transform="matrix(0.008173828125000001,0,0,0.008173828125000001,45.111357421875006,0)" xlink:href="#s"/></g><g id="j"><use transform="matrix(0.008173828125000001,0,0,0.008173828125000001,0,0)" xlink:href="#C"/><use transform="matrix(0.008173828125000001,0,0,0.008173828125000001,10.249980468750001,0)" xlink:href="#s"/><use transform="matrix(0.008173828125000001,0,0,0.008173828125000001,20.009531250000002,0)" xlink:href="#A"/><use transform="matrix(0.008173828125000001,0,0,0.008173828125000001,26.573115234375003,0)" xlink:href="#w"/><use transform="matrix(0.008173828125000001,0,0,0.008173828125000001,41.236962890625,0)" xlink:href="#x"/><use transform="matrix(0.008173828125000001,0,0,0.008173828125000001,45.29118164062501,0)" xlink:href="#t"/><use transform="matrix(0.008173828125000001,0,0,0.008173828125000001,54.127089843750014,0)" xlink:href="#t"/><use transform="matrix(0.008173828125000001,0,0,0.008173828125000001,62.962998046875015,0)" xlink:href="#x"/><use transform="matrix(0.008173828125000001,0,0,0.008173828125000001,67.01721679687502,0)" xlink:href="#q"/><use transform="matrix(0.008173828125000001,0,0,0.008173828125000001,77.05467773437502,0)" xlink:href="#y"/><use transform="matrix(0.008173828125000001,0,0,0.008173828125000001,86.94500976562502,0)" xlink:href="#t"/><use transform="matrix(0.008173828125000001,0,0,0.008173828125000001,95.78091796875002,0)" xlink:href="#E"/></g><path d="M65 0l393-574-370-544h210c88 136 192 297 267 435 67-142 176-302 264-435h206L661-564 1053 0H844c-94-144-206-310-287-458C484-308 366-142 273 0H65" id="H"/><g id="k"><use transform="matrix(0.008173828125000001,0,0,0.008173828125000001,0,0)" xlink:href="#s"/><use transform="matrix(0.008173828125000001,0,0,0.008173828125000001,9.383554687500002,0)" xlink:href="#H"/><use transform="matrix(0.008173828125000001,0,0,0.008173828125000001,18.1458984375,0)" xlink:href="#F"/><use transform="matrix(0.008173828125000001,0,0,0.008173828125000001,27.709277343750003,0)" xlink:href="#s"/><use transform="matrix(0.008173828125000001,0,0,0.008173828125000001,37.468828125,0)" xlink:href="#C"/><use transform="matrix(0.008173828125000001,0,0,0.008173828125000001,47.718808593750005,0)" xlink:href="#z"/></g><path d="M140 405l46-156c120 36 205 19 263-150l32-93L54-1118h197c107 313 237 620 324 950 87-331 219-637 326-950h196L606 167c-68 178-176 259-334 259-64 0-113-12-132-21" id="I"/><g id="l"><use transform="matrix(0.008173828125000001,0,0,0.008173828125000001,0,0)" xlink:href="#t"/><use transform="matrix(0.008173828125000001,0,0,0.008173828125000001,8.835908203125001,0)" xlink:href="#I"/><use transform="matrix(0.008173828125000001,0,0,0.008173828125000001,18.243984375000004,0)" xlink:href="#t"/><use transform="matrix(0.008173828125000001,0,0,0.008173828125000001,27.079892578125005,0)" xlink:href="#z"/><use transform="matrix(0.008173828125000001,0,0,0.008173828125000001,32.392880859375005,0)" xlink:href="#s"/><use transform="matrix(0.008173828125000001,0,0,0.008173828125000001,42.152431640625004,0)" xlink:href="#w"/></g><path d="M180 0v-1490h901v168H370v510h643v168H370V0H180" id="J"/><g id="m"><use transform="matrix(0.008173828125000001,0,0,0.008173828125000001,0,0)" xlink:href="#J"/><use transform="matrix(0.008173828125000001,0,0,0.008173828125000001,9.391728515625001,0)" xlink:href="#A"/><use transform="matrix(0.008173828125000001,0,0,0.008173828125000001,15.415839843750001,0)" xlink:href="#s"/><use transform="matrix(0.008173828125000001,0,0,0.008173828125000001,25.175390625000002,0)" xlink:href="#s"/><use transform="matrix(0.008173828125000001,0,0,0.008173828125000001,34.934941406250005,0)" xlink:href="#r"/><use transform="matrix(0.008173828125000001,0,0,0.008173828125000001,38.98916015625001,0)" xlink:href="#B"/><use transform="matrix(0.008173828125000001,0,0,0.008173828125000001,48.38906250000001,0)" xlink:href="#y"/><use transform="matrix(0.008173828125000001,0,0,0.008173828125000001,58.279394531250006,0)" xlink:href="#F"/><use transform="matrix(0.008173828125000001,0,0,0.008173828125000001,67.8427734375,0)" xlink:href="#s"/><use transform="matrix(0.008173828125000001,0,0,0.008173828125000001,77.60232421875,0)" xlink:href="#A"/></g><path d="M783 20c-382 0-661-292-661-764 0-473 279-766 661-766 302 0 548 182 601 489h-190c-42-204-217-313-411-313-268 0-476 208-476 590 0 381 209 588 476 588 195 0 369-110 411-313h190c-52 303-296 489-601 489" id="K"/><g id="n"><use transform="matrix(0.008173828125000001,0,0,0.008173828125000001,0,0)" xlink:href="#K"/><use transform="matrix(0.008173828125000001,0,0,0.008173828125000001,12.228046875000002,0)" xlink:href="#G"/><use transform="matrix(0.008173828125000001,0,0,0.008173828125000001,22.126552734375004,0)" xlink:href="#t"/><use transform="matrix(0.008173828125000001,0,0,0.008173828125000001,30.962460937500005,0)" xlink:href="#z"/><use transform="matrix(0.008173828125000001,0,0,0.008173828125000001,36.275449218750005,0)" xlink:href="#q"/><use transform="matrix(0.008173828125000001,0,0,0.008173828125000001,46.312910156250005,0)" xlink:href="#w"/><use transform="matrix(0.008173828125000001,0,0,0.008173828125000001,60.97675781250001,0)" xlink:href="#s"/><use transform="matrix(0.008173828125000001,0,0,0.008173828125000001,70.73630859375001,0)" xlink:href="#A"/></g><g id="o"><use transform="matrix(0.008173828125000001,0,0,0.008173828125000001,0,0)" xlink:href="#p"/><use transform="matrix(0.008173828125000001,0,0,0.008173828125000001,10.527890625000001,0)" xlink:href="#s"/><use transform="matrix(0.008173828125000001,0,0,0.008173828125000001,20.45091796875,0)" xlink:href="#B"/><use transform="matrix(0.008173828125000001,0,0,0.008173828125000001,29.850820312500005,0)" xlink:href="#v"/></g></defs></g></svg>