<svg xmlns="http://www.w3.org/2000/svg" xmlns:xlink="http://www.w3.org/1999/xlink" xmlns:lucid="lucid" width="738" height="396.73"><g transform="translate(-471.9999999999999 -205)" lucid:page-tab-id="0_0"><path d="M600 403.36h32a12 12 0 0 0 12-12V258.8a12 12 0 0 1 12-12h32" stroke="#333" fill="none"/><path d="M600 403.84h-.5v-.95h.5zM688.5 247.28h-.5v-.95h.5z" stroke="#333" stroke-width=".05" fill="#333"/><path d="M862 246.8h87" stroke="#ccc" stroke-width="2" fill="none"/><path d="M862.03 247.78H861v-1.95h1.03zM950 247.77h-1.03v-1.95H950z" stroke="#ccc" stroke-width=".05" fill="#ccc"/><path d="M600 403.36h32a12 12 0 0 0 12-12V309.9a12 12 0 0 1 12-12h32" stroke="#333" fill="none"/><path d="M600 403.84h-.5v-.95h.5zM688.5 298.38h-.5v-.95h.5z" stroke="#333" stroke-width=".05" fill="#333"/><path d="M862 297.9h87" stroke="#ccc" stroke-width="2" fill="none"/><path d="M862.03 298.88H861v-1.95h1.03zM950 298.88h-1.03v-1.95H950z" stroke="#ccc" stroke-width=".05" fill="#ccc"/><path d="M600 403.36h32a12 12 0 0 0 12-12V361a12 12 0 0 1 12-12h32" stroke="#333" fill="none"/><path d="M600 403.84h-.5v-.95h.5zM688.5 349.48h-.5v-.95h.5z" stroke="#333" stroke-width=".05" fill="#333"/><path d="M862 349h87" stroke="#ccc" stroke-width="2" fill="none"/><path d="M862.03 349.98H861v-1.95h1.03zM950 349.98h-1.03v-1.95H950z" stroke="#ccc" stroke-width=".05" fill="#ccc"/><path d="M600 403.36h42.37a1.63 1.63 0 0 0 1.63-1.63 1.63 1.63 0 0 1 1.63-1.63H688" stroke="#333" fill="none"/><path d="M600 403.84h-.5v-.95h.5zM688.5 400.58h-.5v-.95h.5z" stroke="#333" stroke-width=".05" fill="#333"/><path d="M862 400.1h87" stroke="#ccc" stroke-width="2" fill="none"/><path d="M862.03 401.08H861v-1.95h1.03zM950 401.08h-1.03v-1.95H950z" stroke="#ccc" stroke-width=".05" fill="#ccc"/><path d="M600 403.36h32a12 12 0 0 1 12 12v23.85a12 12 0 0 0 12 12h32" stroke="#333" fill="none"/><path d="M600 403.84h-.5v-.95h.5zM688.5 451.68h-.5v-.95h.5z" stroke="#333" stroke-width=".05" fill="#333"/><path d="M862 451.2h87" stroke="#ccc" stroke-width="2" fill="none"/><path d="M862.03 452.18H861v-1.95h1.03zM950 452.18h-1.03v-1.95H950z" stroke="#ccc" stroke-width=".05" fill="#ccc"/><path d="M600 403.36h32a12 12 0 0 1 12 12v78.2a12 12 0 0 0 12 12h32" stroke="#333" fill="none"/><path d="M600 403.84h-.5v-.95h.5zM688.5 506.04h-.5v-.95h.5z" stroke="#333" stroke-width=".05" fill="#333"/><path d="M862 505.57h87" stroke="#ccc" stroke-width="2" fill="none"/><path d="M862.03 506.54H861v-1.95h1.03zM950 506.54h-1.03v-1.95H950z" stroke="#ccc" stroke-width=".05" fill="#ccc"/><path d="M600.5 403.36H632a12 12 0 0 1 12 12v132.57a12 12 0 0 0 12 12h31.5" stroke="#ccc" stroke-width="2" fill="none"/><path d="M600.53 404.34h-1.03v-1.95h1.03zM688.5 560.9h-1.03v-1.95h1.03z" stroke="#ccc" stroke-width=".05" fill="#ccc"/><path d="M862 559.93h87" stroke="#ccc" stroke-width="2" fill="none"/><path d="M862.03 560.9H861v-1.95h1.03zM950 560.9h-1.03v-1.95H950z" stroke="#ccc" stroke-width=".05" fill="#ccc"/><path d="M492 387.8a8 8 0 0 1 8-8h91.5a8 8 0 0 1 8 8v31.13a8 8 0 0 1-8 8H500a8 8 0 0 1-8-8z" stroke="#000" stroke-opacity="0" fill="#4397ff"/><use xlink:href="#a" transform="matrix(1,0,0,1,501.9999999999999,393.234375) translate(9.731225585937501 16.216875)"/><path d="M688.5 233a8 8 0 0 1 8-8H853a8 8 0 0 1 8 8v27.6a8 8 0 0 1-8 8H696.5a8 8 0 0 1-8-8z" stroke="#000" stroke-opacity="0" fill="#ffa0a0"/><use xlink:href="#b" transform="matrix(1,0,0,1,698.4999999999999,236.67335345463238) translate(36.341982421874995 16.216875)"/><path d="M950 238.67a4 4 0 0 1 4-4h232a4 4 0 0 1 4 4v16.26a4 4 0 0 1-4 4H954a4 4 0 0 1-4-4z" fill="#fff"/><use xlink:href="#c" transform="matrix(1,0,0,1,951.9999999999999,236.671875) translate(0 16.216875)"/><path d="M688.5 284.1a8 8 0 0 1 8-8H853a8 8 0 0 1 8 8v27.6a8 8 0 0 1-8 8H696.5a8 8 0 0 1-8-8z" stroke="#000" stroke-opacity="0" fill="#ffb781"/><use xlink:href="#d" transform="matrix(1,0,0,1,698.4999999999999,287.7749159546324) translate(52.4648583984375 16.216875)"/><path d="M950 289.77a4 4 0 0 1 4-4h232a4 4 0 0 1 4 4v16.26a4 4 0 0 1-4 4H954a4 4 0 0 1-4-4z" fill="#fff"/><use xlink:href="#e" transform="matrix(1,0,0,1,951.9999999999999,287.7734375) translate(0 16.216875)"/><use xlink:href="#f" transform="matrix(1,0,0,1,951.9999999999999,287.7734375) translate(45.12770507812501 16.216875)"/><use xlink:href="#g" transform="matrix(1,0,0,1,951.9999999999999,287.7734375) translate(104.64134765625002 16.216875)"/><use xlink:href="#h" transform="matrix(1,0,0,1,951.9999999999999,287.7734375) translate(169.04293945312503 16.216875)"/><path d="M688.5 335.2a8 8 0 0 1 8-8H853a8 8 0 0 1 8 8v27.6a8 8 0 0 1-8 8H696.5a8 8 0 0 1-8-8z" stroke="#000" stroke-opacity="0" fill="#ffd99a"/><use xlink:href="#i" transform="matrix(1,0,0,1,698.4999999999999,338.8764784546324) translate(37.9563134765625 16.216875)"/><path d="M950 340.88a4 4 0 0 1 4-4h232a4 4 0 0 1 4 4v16.25a4 4 0 0 1-4 4H954a4 4 0 0 1-4-4z" fill="#fff"/><use xlink:href="#e" transform="matrix(1,0,0,1,951.9999999999999,338.875) translate(0 16.216875)"/><use xlink:href="#f" transform="matrix(1,0,0,1,951.9999999999999,338.875) translate(45.12770507812501 16.216875)"/><use xlink:href="#g" transform="matrix(1,0,0,1,951.9999999999999,338.875) translate(104.64134765625002 16.216875)"/><use xlink:href="#h" transform="matrix(1,0,0,1,951.9999999999999,338.875) translate(169.04293945312503 16.216875)"/><path d="M688.5 386.3a8 8 0 0 1 8-8H853a8 8 0 0 1 8 8v27.6a8 8 0 0 1-8 8H696.5a8 8 0 0 1-8-8z" stroke="#000" stroke-opacity="0" fill="#83e0e1"/><use xlink:href="#j" transform="matrix(1,0,0,1,698.4999999999999,389.9780409546324) translate(48.181772460937495 16.216875)"/><path d="M950 391.98a4 4 0 0 1 4-4h232a4 4 0 0 1 4 4v16.25a4 4 0 0 1-4 4H954a4 4 0 0 1-4-4z" fill="#fff"/><use xlink:href="#e" transform="matrix(1,0,0,1,951.9999999999999,389.9765625) translate(0 16.216875)"/><use xlink:href="#k" transform="matrix(1,0,0,1,951.9999999999999,389.9765625) translate(45.12770507812501 16.216875)"/><path d="M688.5 437.4a8 8 0 0 1 8-8H853a8 8 0 0 1 8 8V465a8 8 0 0 1-8 8H696.5a8 8 0 0 1-8-8z" stroke="#000" stroke-opacity="0" fill="#8b90ff"/><use xlink:href="#l" transform="matrix(1,0,0,1,698.4999999999999,441.0796034546324) translate(31.699248046875 16.216875)"/><path d="M950 443.08a4 4 0 0 1 4-4h232a4 4 0 0 1 4 4v16.25a4 4 0 0 1-4 4H954a4 4 0 0 1-4-4z" fill="#fff"/><use xlink:href="#e" transform="matrix(1,0,0,1,951.9999999999999,441.078125) translate(0 16.216875)"/><use xlink:href="#f" transform="matrix(1,0,0,1,951.9999999999999,441.078125) translate(45.12770507812501 16.216875)"/><use xlink:href="#g" transform="matrix(1,0,0,1,951.9999999999999,441.078125) translate(104.64134765625002 16.216875)"/><use xlink:href="#h" transform="matrix(1,0,0,1,951.9999999999999,441.078125) translate(169.04293945312503 16.216875)"/><path d="M688.5 488.5a8 8 0 0 1 8-8H853a8 8 0 0 1 8 8v34.13a8 8 0 0 1-8 8H696.5a8 8 0 0 1-8-8z" stroke="#000" stroke-opacity="0" fill="#75b2ff"/><use xlink:href="#m" transform="matrix(1,0,0,1,698.4999999999999,495.43952716372814) translate(6.062036132812494 16.216875)"/><use xlink:href="#n" transform="matrix(1,0,0,1,698.4999999999999,495.43952716372814) translate(80.95882324218749 16.216875)"/><path d="M950 497.44a4 4 0 0 1 4-4h232a4 4 0 0 1 4 4v16.25a4 4 0 0 1-4 4H954a4 4 0 0 1-4-4z" fill="#fff"/><use xlink:href="#e" transform="matrix(1,0,0,1,951.9999999999999,495.4375) translate(0 16.216875)"/><use xlink:href="#f" transform="matrix(1,0,0,1,951.9999999999999,495.4375) translate(45.12770507812501 16.216875)"/><use xlink:href="#g" transform="matrix(1,0,0,1,951.9999999999999,495.4375) translate(104.64134765625002 16.216875)"/><use xlink:href="#h" transform="matrix(1,0,0,1,951.9999999999999,495.4375) translate(169.04293945312503 16.216875)"/><path d="M688.5 546.13a8 8 0 0 1 8-8H853a8 8 0 0 1 8 8v27.6a8 8 0 0 1-8 8H696.5a8 8 0 0 1-8-8z" stroke="#000" stroke-opacity="0" fill="#83e0e1"/><use xlink:href="#o" transform="matrix(1,0,0,1,698.4999999999999,549.7983534546323) translate(45.856318359374995 16.216875)"/><path d="M950 551.8a4 4 0 0 1 4-4h230.36a4 4 0 0 1 4 4v16.25a4 4 0 0 1-4 4H954a4 4 0 0 1-4-4z" fill="#fff"/><use xlink:href="#e" transform="matrix(1,0,0,1,951.9999999999999,549.796875) translate(0 16.216875)"/><use xlink:href="#f" transform="matrix(1,0,0,1,951.9999999999999,549.796875) translate(45.12770507812501 16.216875)"/><use xlink:href="#g" transform="matrix(1,0,0,1,951.9999999999999,549.796875) translate(104.64134765625002 16.216875)"/><use xlink:href="#h" transform="matrix(1,0,0,1,951.9999999999999,549.796875) translate(169.04293945312503 16.216875)"/><path d="M600 403.36h32a12 12 0 0 0 12-12V258.8a12 12 0 0 1 12-12h32" stroke="#333" fill="none"/><path d="M600 403.84h-.5v-.95h.5zM688.5 247.28h-.5v-.95h.5z" stroke="#333" stroke-width=".05" fill="#333"/><path d="M862 246.8h87" stroke="#ccc" stroke-width="2" fill="none"/><path d="M862.03 247.78H861v-1.95h1.03zM950 247.77h-1.03v-1.95H950z" stroke="#ccc" stroke-width=".05" fill="#ccc"/><path d="M600 403.36h32a12 12 0 0 0 12-12V309.9a12 12 0 0 1 12-12h32" stroke="#333" fill="none"/><path d="M600 403.84h-.5v-.95h.5zM688.5 298.38h-.5v-.95h.5z" stroke="#333" stroke-width=".05" fill="#333"/><path d="M862 297.9h87" stroke="#ccc" stroke-width="2" fill="none"/><path d="M862.03 298.88H861v-1.95h1.03zM950 298.88h-1.03v-1.95H950z" stroke="#ccc" stroke-width=".05" fill="#ccc"/><path d="M600 403.36h32a12 12 0 0 0 12-12V361a12 12 0 0 1 12-12h32" stroke="#333" fill="none"/><path d="M600 403.84h-.5v-.95h.5zM688.5 349.48h-.5v-.95h.5z" stroke="#333" stroke-width=".05" fill="#333"/><path d="M862 349h87" stroke="#ccc" stroke-width="2" fill="none"/><path d="M862.03 349.98H861v-1.95h1.03zM950 349.98h-1.03v-1.95H950z" stroke="#ccc" stroke-width=".05" fill="#ccc"/><path d="M600 403.36h42.37a1.63 1.63 0 0 0 1.63-1.63 1.63 1.63 0 0 1 1.63-1.63H688" stroke="#333" fill="none"/><path d="M600 403.84h-.5v-.95h.5zM688.5 400.58h-.5v-.95h.5z" stroke="#333" stroke-width=".05" fill="#333"/><path d="M862 400.1h87" stroke="#ccc" stroke-width="2" fill="none"/><path d="M862.03 401.08H861v-1.95h1.03zM950 401.08h-1.03v-1.95H950z" stroke="#ccc" stroke-width=".05" fill="#ccc"/><path d="M600 403.36h32a12 12 0 0 1 12 12v23.85a12 12 0 0 0 12 12h32" stroke="#333" fill="none"/><path d="M600 403.84h-.5v-.95h.5zM688.5 451.68h-.5v-.95h.5z" stroke="#333" stroke-width=".05" fill="#333"/><path d="M862 451.2h87" stroke="#ccc" stroke-width="2" fill="none"/><path d="M862.03 452.18H861v-1.95h1.03zM950 452.18h-1.03v-1.95H950z" stroke="#ccc" stroke-width=".05" fill="#ccc"/><path d="M600 403.36h32a12 12 0 0 1 12 12v78.2a12 12 0 0 0 12 12h32" stroke="#333" fill="none"/><path d="M600 403.84h-.5v-.95h.5zM688.5 506.04h-.5v-.95h.5z" stroke="#333" stroke-width=".05" fill="#333"/><path d="M862 505.57h87" stroke="#ccc" stroke-width="2" fill="none"/><path d="M862.03 506.54H861v-1.95h1.03zM950 506.54h-1.03v-1.95H950z" stroke="#ccc" stroke-width=".05" fill="#ccc"/><path d="M600.5 403.36H632a12 12 0 0 1 12 12v132.57a12 12 0 0 0 12 12h31.5" stroke="#ccc" stroke-width="2" fill="none"/><path d="M600.53 404.34h-1.03v-1.95h1.03zM688.5 560.9h-1.03v-1.95h1.03z" stroke="#ccc" stroke-width=".05" fill="#ccc"/><path d="M862 559.93h87" stroke="#ccc" stroke-width="2" fill="none"/><path d="M862.03 560.9H861v-1.95h1.03zM950 560.9h-1.03v-1.95H950z" stroke="#ccc" stroke-width=".05" fill="#ccc"/><path d="M492 387.8a8 8 0 0 1 8-8h91.5a8 8 0 0 1 8 8v31.13a8 8 0 0 1-8 8H500a8 8 0 0 1-8-8z" stroke="#000" stroke-opacity="0" fill="#4397ff"/><use xlink:href="#a" transform="matrix(1,0,0,1,501.9999999999999,393.234375) translate(9.731225585937501 16.216875)"/><path d="M688.5 233a8 8 0 0 1 8-8H853a8 8 0 0 1 8 8v27.6a8 8 0 0 1-8 8H696.5a8 8 0 0 1-8-8z" stroke="#000" stroke-opacity="0" fill="#ffa0a0"/><use xlink:href="#b" transform="matrix(1,0,0,1,698.4999999999999,236.67335345463238) translate(36.341982421874995 16.216875)"/><path d="M950 238.67a4 4 0 0 1 4-4h232a4 4 0 0 1 4 4v16.26a4 4 0 0 1-4 4H954a4 4 0 0 1-4-4z" fill="#fff"/><use xlink:href="#c" transform="matrix(1,0,0,1,951.9999999999999,236.671875) translate(0 16.216875)"/><path d="M688.5 284.1a8 8 0 0 1 8-8H853a8 8 0 0 1 8 8v27.6a8 8 0 0 1-8 8H696.5a8 8 0 0 1-8-8z" stroke="#000" stroke-opacity="0" fill="#ffb781"/><use xlink:href="#d" transform="matrix(1,0,0,1,698.4999999999999,287.7749159546324) translate(52.4648583984375 16.216875)"/><path d="M950 289.77a4 4 0 0 1 4-4h232a4 4 0 0 1 4 4v16.26a4 4 0 0 1-4 4H954a4 4 0 0 1-4-4z" fill="#fff"/><use xlink:href="#e" transform="matrix(1,0,0,1,951.9999999999999,287.7734375) translate(0 16.216875)"/><use xlink:href="#f" transform="matrix(1,0,0,1,951.9999999999999,287.7734375) translate(45.12770507812501 16.216875)"/><use xlink:href="#g" transform="matrix(1,0,0,1,951.9999999999999,287.7734375) translate(104.64134765625002 16.216875)"/><use xlink:href="#h" transform="matrix(1,0,0,1,951.9999999999999,287.7734375) translate(169.04293945312503 16.216875)"/><path d="M688.5 335.2a8 8 0 0 1 8-8H853a8 8 0 0 1 8 8v27.6a8 8 0 0 1-8 8H696.5a8 8 0 0 1-8-8z" stroke="#000" stroke-opacity="0" fill="#ffd99a"/><g><use xlink:href="#i" transform="matrix(1,0,0,1,698.4999999999999,338.8764784546324) translate(37.9563134765625 16.216875)"/></g><path d="M950 340.88a4 4 0 0 1 4-4h232a4 4 0 0 1 4 4v16.25a4 4 0 0 1-4 4H954a4 4 0 0 1-4-4z" fill="#fff"/><g><use xlink:href="#e" transform="matrix(1,0,0,1,951.9999999999999,338.875) translate(0 16.216875)"/><use xlink:href="#f" transform="matrix(1,0,0,1,951.9999999999999,338.875) translate(45.12770507812501 16.216875)"/><use xlink:href="#g" transform="matrix(1,0,0,1,951.9999999999999,338.875) translate(104.64134765625002 16.216875)"/><use xlink:href="#h" transform="matrix(1,0,0,1,951.9999999999999,338.875) translate(169.04293945312503 16.216875)"/></g><path d="M688.5 386.3a8 8 0 0 1 8-8H853a8 8 0 0 1 8 8v27.6a8 8 0 0 1-8 8H696.5a8 8 0 0 1-8-8z" stroke="#000" stroke-opacity="0" fill="#83e0e1"/><g><use xlink:href="#j" transform="matrix(1,0,0,1,698.4999999999999,389.9780409546324) translate(48.181772460937495 16.216875)"/></g><path d="M950 391.98a4 4 0 0 1 4-4h232a4 4 0 0 1 4 4v16.25a4 4 0 0 1-4 4H954a4 4 0 0 1-4-4z" fill="#fff"/><g><use xlink:href="#e" transform="matrix(1,0,0,1,951.9999999999999,389.9765625) translate(0 16.216875)"/><use xlink:href="#k" transform="matrix(1,0,0,1,951.9999999999999,389.9765625) translate(45.12770507812501 16.216875)"/></g><path d="M688.5 437.4a8 8 0 0 1 8-8H853a8 8 0 0 1 8 8V465a8 8 0 0 1-8 8H696.5a8 8 0 0 1-8-8z" stroke="#000" stroke-opacity="0" fill="#8b90ff"/><g><use xlink:href="#l" transform="matrix(1,0,0,1,698.4999999999999,441.0796034546324) translate(31.699248046875 16.216875)"/></g><path d="M950 443.08a4 4 0 0 1 4-4h232a4 4 0 0 1 4 4v16.25a4 4 0 0 1-4 4H954a4 4 0 0 1-4-4z" fill="#fff"/><g><use xlink:href="#e" transform="matrix(1,0,0,1,951.9999999999999,441.078125) translate(0 16.216875)"/><use xlink:href="#f" transform="matrix(1,0,0,1,951.9999999999999,441.078125) translate(45.12770507812501 16.216875)"/><use xlink:href="#g" transform="matrix(1,0,0,1,951.9999999999999,441.078125) translate(104.64134765625002 16.216875)"/><use xlink:href="#h" transform="matrix(1,0,0,1,951.9999999999999,441.078125) translate(169.04293945312503 16.216875)"/></g><path d="M688.5 488.5a8 8 0 0 1 8-8H853a8 8 0 0 1 8 8v34.13a8 8 0 0 1-8 8H696.5a8 8 0 0 1-8-8z" stroke="#000" stroke-opacity="0" fill="#75b2ff"/><g><use xlink:href="#m" transform="matrix(1,0,0,1,698.4999999999999,495.43952716372814) translate(6.062036132812494 16.216875)"/><use xlink:href="#n" transform="matrix(1,0,0,1,698.4999999999999,495.43952716372814) translate(80.95882324218749 16.216875)"/></g><path d="M950 497.44a4 4 0 0 1 4-4h232a4 4 0 0 1 4 4v16.25a4 4 0 0 1-4 4H954a4 4 0 0 1-4-4z" fill="#fff"/><g><use xlink:href="#e" transform="matrix(1,0,0,1,951.9999999999999,495.4375) translate(0 16.216875)"/><use xlink:href="#f" transform="matrix(1,0,0,1,951.9999999999999,495.4375) translate(45.12770507812501 16.216875)"/><use xlink:href="#g" transform="matrix(1,0,0,1,951.9999999999999,495.4375) translate(104.64134765625002 16.216875)"/><use xlink:href="#h" transform="matrix(1,0,0,1,951.9999999999999,495.4375) translate(169.04293945312503 16.216875)"/></g><path d="M688.5 546.13a8 8 0 0 1 8-8H853a8 8 0 0 1 8 8v27.6a8 8 0 0 1-8 8H696.5a8 8 0 0 1-8-8z" stroke="#000" stroke-opacity="0" fill="#83e0e1"/><g><use xlink:href="#o" transform="matrix(1,0,0,1,698.4999999999999,549.7983534546323) translate(45.856318359374995 16.216875)"/></g><path d="M950 551.8a4 4 0 0 1 4-4h230.36a4 4 0 0 1 4 4v16.25a4 4 0 0 1-4 4H954a4 4 0 0 1-4-4z" fill="#fff"/><g><use xlink:href="#e" transform="matrix(1,0,0,1,951.9999999999999,549.796875) translate(0 16.216875)"/><use xlink:href="#f" transform="matrix(1,0,0,1,951.9999999999999,549.796875) translate(45.12770507812501 16.216875)"/><use xlink:href="#g" transform="matrix(1,0,0,1,951.9999999999999,549.796875) translate(104.64134765625002 16.216875)"/><use xlink:href="#h" transform="matrix(1,0,0,1,951.9999999999999,549.796875) translate(169.04293945312503 16.216875)"/></g><defs><path d="M180 0v-1490h901v168H370v510h643v168H370V0H180" id="p"/><path d="M628 24c-324 0-524-230-524-574 0-343 198-582 503-582 237 0 487 146 487 559v75H286c9 234 145 362 343 362 132 0 231-58 273-172l174 48C1024-91 857 24 628 24zM287-650h624c-17-190-120-322-304-322-192 0-309 151-320 322" id="q"/><path d="M471 26C259 26 90-98 90-318c0-256 228-303 435-329 202-27 287-16 287-108 0-139-79-219-234-219-161 0-248 86-283 164l-173-57c86-203 278-265 451-265 150 0 419 46 419 395V0H815v-152h-12C765-73 660 26 471 26zm31-159c199 0 310-134 310-271v-155c-30 35-226 55-295 64-131 17-246 59-246 186 0 116 97 176 231 176" id="r"/><path d="M598-1118v154H368v674c0 100 37 144 132 144 23 0 62-6 92-12L629-6c-37 13-88 20-134 20-193 0-307-107-307-290v-688H20v-154h168v-266h180v266h230" id="s"/><path d="M537 14c-226 0-379-139-379-422v-710h180v695c0 172 97 275 253 275 160 0 281-109 281-300v-670h181V0H879v-209C806-46 684 14 537 14" id="t"/><path d="M158 0v-1118h174v172h12c41-113 157-188 290-188 26 0 70 2 91 3v181c-11-2-60-10-108-10-161 0-279 109-279 260V0H158" id="u"/><path d="M538 24C308 24 148-78 108-271l171-41c32 123 123 178 257 178 156 0 256-77 256-169 0-77-54-128-164-154l-186-44c-203-48-300-148-300-305 0-192 176-326 414-326 230 0 351 112 402 269l-163 42c-31-80-94-158-238-158-133 0-233 69-233 162 0 83 57 129 188 160l169 40c203 48 298 149 298 302 0 196-179 339-441 339" id="v"/><g id="a"><use transform="matrix(0.008173828125000001,0,0,0.008173828125000001,0,0)" xlink:href="#p"/><use transform="matrix(0.008173828125000001,0,0,0.008173828125000001,9.220078125000002,0)" xlink:href="#q"/><use transform="matrix(0.008173828125000001,0,0,0.008173828125000001,19.14310546875,0)" xlink:href="#r"/><use transform="matrix(0.008173828125000001,0,0,0.008173828125000001,28.5430078125,0)" xlink:href="#s"/><use transform="matrix(0.008173828125000001,0,0,0.008173828125000001,34.01947265625,0)" xlink:href="#t"/><use transform="matrix(0.008173828125000001,0,0,0.008173828125000001,43.917978515625,0)" xlink:href="#u"/><use transform="matrix(0.008173828125000001,0,0,0.008173828125000001,49.94208984375,0)" xlink:href="#q"/><use transform="matrix(0.008173828125000001,0,0,0.008173828125000001,59.701640625,0)" xlink:href="#v"/></g><path d="M645 0H180v-1490h484c435 0 692 280 692 742 0 466-257 748-711 748zM370-168h263c363 0 539-218 539-580 0-358-176-574-521-574H370v1154" id="w"/><path d="M338-670V0H158v-1490h180v566c73-149 190-208 336-208 226 0 379 139 379 422V0H872v-695c0-172-96-275-252-275-161 0-282 109-282 300" id="x"/><path d="M677 24c-213 0-288-135-325-197h-20V0H158v-1490h180v551h14c37-59 106-193 324-193 279 0 474 222 474 576 0 356-194 580-473 580zm-27-161c209 0 317-186 317-421 0-232-105-413-317-413-206 0-314 166-314 413 0 249 111 421 314 421" id="y"/><path d="M613 24c-304 0-509-231-509-576 0-350 205-580 509-580 305 0 511 230 511 580 0 345-206 576-511 576zm0-161c226 0 329-195 329-415 0-222-103-419-329-419-223 0-326 196-326 419 0 220 103 415 326 415" id="z"/><path d="M577 24c-279 0-473-224-473-580 0-354 195-576 474-576 218 0 287 134 324 193h14v-551h180V0H922v-173h-20C865-111 790 24 577 24zm27-161c203 0 314-172 314-421 0-247-108-413-314-413-212 0-317 181-317 413 0 235 108 421 317 421" id="A"/><g id="b"><use transform="matrix(0.008173828125000001,0,0,0.008173828125000001,0,0)" xlink:href="#w"/><use transform="matrix(0.008173828125000001,0,0,0.008173828125000001,12.08091796875,0)" xlink:href="#r"/><use transform="matrix(0.008173828125000001,0,0,0.008173828125000001,21.4808203125,0)" xlink:href="#v"/><use transform="matrix(0.008173828125000001,0,0,0.008173828125000001,30.316728515624998,0)" xlink:href="#x"/><use transform="matrix(0.008173828125000001,0,0,0.008173828125000001,40.215234375,0)" xlink:href="#y"/><use transform="matrix(0.008173828125000001,0,0,0.008173828125000001,50.465214843750005,0)" xlink:href="#z"/><use transform="matrix(0.008173828125000001,0,0,0.008173828125000001,60.66615234375001,0)" xlink:href="#r"/><use transform="matrix(0.008173828125000001,0,0,0.008173828125000001,70.06605468750001,0)" xlink:href="#A"/></g><g id="c"><use transform="matrix(0.008173828125000001,0,0,0.008173828125000001,0,0)" xlink:href="#u"/><use transform="matrix(0.008173828125000001,0,0,0.008173828125000001,6.0241113281250005,0)" xlink:href="#q"/><use transform="matrix(0.008173828125000001,0,0,0.008173828125000001,15.947138671875,0)" xlink:href="#r"/><use transform="matrix(0.008173828125000001,0,0,0.008173828125000001,25.347041015625003,0)" xlink:href="#A"/></g><path d="M370-1490V0H180v-1490h190" id="B"/><path d="M338-670V0H158v-1118h173l1 207c72-158 192-221 342-221 226 0 378 139 378 422V0H872v-695c0-172-96-275-252-275-161 0-282 109-282 300" id="C"/><path d="M678-1118v154H420V0H240v-964H20v-154h220v-149c0-194 155-293 318-293 85 0 141 18 168 30l-50 154c-19-6-47-17-97-17-111 0-159 58-159 166v109h258" id="D"/><path d="M338-1490V0H158v-1490h180" id="E"/><path d="M409 0L70-1118h191c89 329 165 560 243 925 75-353 154-601 240-925h192c85 325 161 564 235 922 77-354 157-598 244-922h191L1267 0h-179c-86-307-176-590-250-913C763-588 675-308 588 0H409" id="F"/><g id="d"><use transform="matrix(0.008173828125000001,0,0,0.008173828125000001,0,0)" xlink:href="#B"/><use transform="matrix(0.008173828125000001,0,0,0.008173828125000001,4.495605468750001,0)" xlink:href="#C"/><use transform="matrix(0.008173828125000001,0,0,0.008173828125000001,14.3859375,0)" xlink:href="#D"/><use transform="matrix(0.008173828125000001,0,0,0.008173828125000001,20.581699218750003,0)" xlink:href="#E"/><use transform="matrix(0.008173828125000001,0,0,0.008173828125000001,24.635917968750004,0)" xlink:href="#z"/><use transform="matrix(0.008173828125000001,0,0,0.008173828125000001,34.370947265625006,0)" xlink:href="#F"/></g><path d="M128 359l88-567h206L266 359H128" id="G"/><g id="e"><use transform="matrix(0.008173828125000001,0,0,0.008173828125000001,0,0)" xlink:href="#u"/><use transform="matrix(0.008173828125000001,0,0,0.008173828125000001,6.0241113281250005,0)" xlink:href="#q"/><use transform="matrix(0.008173828125000001,0,0,0.008173828125000001,15.947138671875,0)" xlink:href="#r"/><use transform="matrix(0.008173828125000001,0,0,0.008173828125000001,25.347041015625003,0)" xlink:href="#A"/><use transform="matrix(0.008173828125000001,0,0,0.008173828125000001,35.597021484375006,0)" xlink:href="#G"/></g><path d="M613 24c-304 0-509-231-509-576 0-350 205-580 509-580 216 0 392 114 453 309l-173 49c-33-115-133-197-280-197-223 0-326 196-326 419 0 220 103 415 326 415 150 0 252-85 285-206l172 49C1010-95 832 24 613 24" id="H"/><g id="f"><use transform="matrix(0.008173828125000001,0,0,0.008173828125000001,0,0)" xlink:href="#H"/><use transform="matrix(0.008173828125000001,0,0,0.008173828125000001,9.563378906250001,0)" xlink:href="#u"/><use transform="matrix(0.008173828125000001,0,0,0.008173828125000001,15.587490234375002,0)" xlink:href="#q"/><use transform="matrix(0.008173828125000001,0,0,0.008173828125000001,25.510517578125004,0)" xlink:href="#r"/><use transform="matrix(0.008173828125000001,0,0,0.008173828125000001,34.910419921875004,0)" xlink:href="#s"/><use transform="matrix(0.008173828125000001,0,0,0.008173828125000001,40.223408203125004,0)" xlink:href="#q"/><use transform="matrix(0.008173828125000001,0,0,0.008173828125000001,49.982958984375,0)" xlink:href="#G"/></g><path d="M158 418v-1536h174v179h20c37-59 106-193 324-193 279 0 474 222 474 576 0 356-194 580-473 580-213 0-288-135-325-197h-14v591H158zm492-555c209 0 317-186 317-421 0-232-105-413-317-413-206 0-314 166-314 413 0 249 111 421 314 421" id="I"/><g id="g"><use transform="matrix(0.008173828125000001,0,0,0.008173828125000001,0,0)" xlink:href="#t"/><use transform="matrix(0.008173828125000001,0,0,0.008173828125000001,9.898505859375001,0)" xlink:href="#I"/><use transform="matrix(0.008173828125000001,0,0,0.008173828125000001,20.148486328125003,0)" xlink:href="#A"/><use transform="matrix(0.008173828125000001,0,0,0.008173828125000001,30.398466796875006,0)" xlink:href="#r"/><use transform="matrix(0.008173828125000001,0,0,0.008173828125000001,39.798369140625006,0)" xlink:href="#s"/><use transform="matrix(0.008173828125000001,0,0,0.008173828125000001,45.111357421875006,0)" xlink:href="#q"/><use transform="matrix(0.008173828125000001,0,0,0.008173828125000001,54.870908203125005,0)" xlink:href="#G"/></g><g id="h"><use transform="matrix(0.008173828125000001,0,0,0.008173828125000001,0,0)" xlink:href="#A"/><use transform="matrix(0.008173828125000001,0,0,0.008173828125000001,10.249980468750001,0)" xlink:href="#q"/><use transform="matrix(0.008173828125000001,0,0,0.008173828125000001,20.009531250000002,0)" xlink:href="#E"/><use transform="matrix(0.008173828125000001,0,0,0.008173828125000001,24.063750000000002,0)" xlink:href="#q"/><use transform="matrix(0.008173828125000001,0,0,0.008173828125000001,33.823300781250005,0)" xlink:href="#s"/><use transform="matrix(0.008173828125000001,0,0,0.008173828125000001,39.136289062500005,0)" xlink:href="#q"/></g><path d="M180 0v-1490h510c348 0 508 194 508 460 0 198-88 351-276 417L1256 0h-220L726-579c-117 2-238 0-356 1V0H180zm190-747h312c235 0 327-108 327-283 0-177-92-293-329-293H370v576" id="J"/><path d="M158 0v-1118h180V0H158zm91-1301c-68 0-125-53-125-119s57-119 125-119c69 0 126 53 126 119s-57 119-126 119" id="K"/><path d="M611 442c-248 0-391-105-460-228l146-94c47 65 117 165 314 165 178 0 307-82 307-266v-224h-17C863-141 792-18 576-18c-268 0-472-195-472-546 0-346 197-568 476-568 216 0 288 133 326 193h17v-179h175V29c0 289-215 413-487 413zm-5-620c203 0 314-146 314-390 0-237-108-403-314-403-213 0-319 180-319 403 0 230 109 390 319 390" id="L"/><g id="i"><use transform="matrix(0.008173828125000001,0,0,0.008173828125000001,0,0)" xlink:href="#J"/><use transform="matrix(0.008173828125000001,0,0,0.008173828125000001,10.527890625000001,0)" xlink:href="#q"/><use transform="matrix(0.008173828125000001,0,0,0.008173828125000001,20.287441406250004,0)" xlink:href="#H"/><use transform="matrix(0.008173828125000001,0,0,0.008173828125000001,29.850820312500005,0)" xlink:href="#t"/><use transform="matrix(0.008173828125000001,0,0,0.008173828125000001,39.749326171875005,0)" xlink:href="#u"/><use transform="matrix(0.008173828125000001,0,0,0.008173828125000001,46.31291015625,0)" xlink:href="#u"/><use transform="matrix(0.008173828125000001,0,0,0.008173828125000001,52.876494140625,0)" xlink:href="#K"/><use transform="matrix(0.008173828125000001,0,0,0.008173828125000001,56.930712890625,0)" xlink:href="#C"/><use transform="matrix(0.008173828125000001,0,0,0.008173828125000001,66.821044921875,0)" xlink:href="#L"/></g><path d="M481 0L54-1118h197c107 314 236 620 325 951 87-331 217-637 324-951h197L670 0H481" id="M"/><g id="j"><use transform="matrix(0.008173828125000001,0,0,0.008173828125000001,0,0)" xlink:href="#B"/><use transform="matrix(0.008173828125000001,0,0,0.008173828125000001,4.495605468750001,0)" xlink:href="#C"/><use transform="matrix(0.008173828125000001,0,0,0.008173828125000001,14.140722656250002,0)" xlink:href="#M"/><use transform="matrix(0.008173828125000001,0,0,0.008173828125000001,23.221845703125005,0)" xlink:href="#z"/><use transform="matrix(0.008173828125000001,0,0,0.008173828125000001,33.259306640625006,0)" xlink:href="#K"/><use transform="matrix(0.008173828125000001,0,0,0.008173828125000001,37.313525390625,0)" xlink:href="#H"/><use transform="matrix(0.008173828125000001,0,0,0.008173828125000001,46.876904296875004,0)" xlink:href="#q"/></g><g id="k"><use transform="matrix(0.008173828125000001,0,0,0.008173828125000001,0,0)" xlink:href="#H"/><use transform="matrix(0.008173828125000001,0,0,0.008173828125000001,9.563378906250001,0)" xlink:href="#u"/><use transform="matrix(0.008173828125000001,0,0,0.008173828125000001,15.587490234375002,0)" xlink:href="#q"/><use transform="matrix(0.008173828125000001,0,0,0.008173828125000001,25.510517578125004,0)" xlink:href="#r"/><use transform="matrix(0.008173828125000001,0,0,0.008173828125000001,34.910419921875004,0)" xlink:href="#s"/><use transform="matrix(0.008173828125000001,0,0,0.008173828125000001,40.223408203125004,0)" xlink:href="#q"/></g><path d="M180 0v-1490h528c311 0 458 177 458 395 0 191-114 278-244 313v14c139 9 302 137 302 371 0 225-148 397-499 397H180zm190-168h350c232 0 321-102 321-231 0-149-120-277-311-277H370v508zm0-668h328c160 0 286-101 286-255 0-129-87-231-280-231H370v486" id="N"/><path d="M140 405l46-156c120 36 205 19 263-150l32-93L54-1118h197c107 313 237 620 324 950 87-331 219-637 326-950h196L606 167c-68 178-176 259-334 259-64 0-113-12-132-21" id="O"/><g id="l"><use transform="matrix(0.008173828125000001,0,0,0.008173828125000001,0,0)" xlink:href="#N"/><use transform="matrix(0.008173828125000001,0,0,0.008173828125000001,10.952929687500001,0)" xlink:href="#q"/><use transform="matrix(0.008173828125000001,0,0,0.008173828125000001,20.71248046875,0)" xlink:href="#C"/><use transform="matrix(0.008173828125000001,0,0,0.008173828125000001,30.602812500000002,0)" xlink:href="#q"/><use transform="matrix(0.008173828125000001,0,0,0.008173828125000001,40.362363281250005,0)" xlink:href="#D"/><use transform="matrix(0.008173828125000001,0,0,0.008173828125000001,46.558125000000004,0)" xlink:href="#K"/><use transform="matrix(0.008173828125000001,0,0,0.008173828125000001,50.61234375000001,0)" xlink:href="#H"/><use transform="matrix(0.008173828125000001,0,0,0.008173828125000001,60.17572265625001,0)" xlink:href="#K"/><use transform="matrix(0.008173828125000001,0,0,0.008173828125000001,64.22994140625,0)" xlink:href="#r"/><use transform="matrix(0.008173828125000001,0,0,0.008173828125000001,73.62984375,0)" xlink:href="#u"/><use transform="matrix(0.008173828125000001,0,0,0.008173828125000001,80.193427734375,0)" xlink:href="#O"/></g><g id="m"><use transform="matrix(0.008173828125000001,0,0,0.008173828125000001,0,0)" xlink:href="#p"/><use transform="matrix(0.008173828125000001,0,0,0.008173828125000001,9.882158203125002,0)" xlink:href="#K"/><use transform="matrix(0.008173828125000001,0,0,0.008173828125000001,13.936376953125002,0)" xlink:href="#C"/><use transform="matrix(0.008173828125000001,0,0,0.008173828125000001,23.826708984375003,0)" xlink:href="#r"/><use transform="matrix(0.008173828125000001,0,0,0.008173828125000001,33.226611328125,0)" xlink:href="#C"/><use transform="matrix(0.008173828125000001,0,0,0.008173828125000001,43.116943359375,0)" xlink:href="#H"/><use transform="matrix(0.008173828125000001,0,0,0.008173828125000001,52.680322265625,0)" xlink:href="#K"/><use transform="matrix(0.008173828125000001,0,0,0.008173828125000001,56.734541015625,0)" xlink:href="#r"/><use transform="matrix(0.008173828125000001,0,0,0.008173828125000001,66.134443359375,0)" xlink:href="#E"/></g><path d="M52 0l541-1490h220L1361 0h-200l-149-416H398L254 0H52zm404-582h497c-103-290-145-390-251-756-108 377-145 460-246 756" id="P"/><g id="n"><use transform="matrix(0.008173828125000001,0,0,0.008173828125000001,0,0)" xlink:href="#P"/><use transform="matrix(0.008173828125000001,0,0,0.008173828125000001,11.549619140625001,0)" xlink:href="#H"/><use transform="matrix(0.008173828125000001,0,0,0.008173828125000001,21.112998046875003,0)" xlink:href="#H"/><use transform="matrix(0.008173828125000001,0,0,0.008173828125000001,30.676376953125004,0)" xlink:href="#z"/><use transform="matrix(0.008173828125000001,0,0,0.008173828125000001,40.71383789062501,0)" xlink:href="#t"/><use transform="matrix(0.008173828125000001,0,0,0.008173828125000001,50.61234375,0)" xlink:href="#C"/><use transform="matrix(0.008173828125000001,0,0,0.008173828125000001,60.502675781250005,0)" xlink:href="#s"/></g><g id="o"><use transform="matrix(0.008173828125000001,0,0,0.008173828125000001,0,0)" xlink:href="#J"/><use transform="matrix(0.008173828125000001,0,0,0.008173828125000001,10.527890625000001,0)" xlink:href="#q"/><use transform="matrix(0.008173828125000001,0,0,0.008173828125000001,20.287441406250004,0)" xlink:href="#I"/><use transform="matrix(0.008173828125000001,0,0,0.008173828125000001,30.537421875000007,0)" xlink:href="#z"/><use transform="matrix(0.008173828125000001,0,0,0.008173828125000001,40.57488281250001,0)" xlink:href="#u"/><use transform="matrix(0.008173828125000001,0,0,0.008173828125000001,47.13846679687501,0)" xlink:href="#s"/><use transform="matrix(0.008173828125000001,0,0,0.008173828125000001,52.45145507812501,0)" xlink:href="#v"/></g></defs></g></svg>