<svg xmlns="http://www.w3.org/2000/svg" xmlns:xlink="http://www.w3.org/1999/xlink" xmlns:lucid="lucid" width="1110" height="782"><g transform="translate(-380 -178.99999998736556)" lucid:page-tab-id="0_0"><g filter="url(#a)"><path d="M460 590a10 10 0 0 1 10-10h310.98a10 10 0 0 1 10 10v180a10 10 0 0 1-10 10H470a10 10 0 0 1-10-10z" fill="#4c535d"/><path d="M460 652v33h330.98v-33M460 716v33h330.98v-33" fill="#444b54"/><path d="M460 620v-30a10 10 0 0 1 10-10h310.98a10 10 0 0 1 10 10v30" fill="#3a414a"/><path d="M460 590a10 10 0 0 1 10-10h310.98a10 10 0 0 1 10 10v180a10 10 0 0 1-10 10H470a10 10 0 0 1-10-10zM460 620h330.98M625.5 620v160" stroke="#979ea8" stroke-width="2" fill="none"/><use xlink:href="#b" transform="matrix(1,0,0,1,470,580) translate(123.40234375 26.5478515625)"/><use xlink:href="#c" transform="matrix(1,0,0,1,465,622.5) translate(70.3095703125 20.0478515625)"/><use xlink:href="#d" transform="matrix(1,0,0,1,630.4892578125,622.5) translate(53.759765625 20.0478515625)"/><use xlink:href="#e" transform="matrix(1,0,0,1,465,654.5) translate(54.498046875 20.0478515625)"/><use xlink:href="#d" transform="matrix(1,0,0,1,630.4892578125,654.5) translate(53.759765625 20.0478515625)"/><use xlink:href="#f" transform="matrix(1,0,0,1,465,686.5) translate(30.29296875 20.0478515625)"/><use xlink:href="#d" transform="matrix(1,0,0,1,630.4892578125,686.5) translate(53.759765625 20.0478515625)"/><use xlink:href="#g" transform="matrix(1,0,0,1,465,718.5) translate(26.5048828125 20.0478515625)"/><use xlink:href="#h" transform="matrix(1,0,0,1,630.4892578125,718.5) translate(31.06640625 20.0478515625)"/><use xlink:href="#i" transform="matrix(1,0,0,1,465,750.5) translate(31.43115234375 20.0478515625)"/><use xlink:href="#j" transform="matrix(1,0,0,1,630.4892578125,750.5) translate(37.24951171875 20.0478515625)"/></g><g filter="url(#a)"><path d="M460 302a10 10 0 0 1 10-10h310.98a10 10 0 0 1 10 10v180a10 10 0 0 1-10 10H470a10 10 0 0 1-10-10z" fill="#4c535d"/><path d="M460 364v33h330.98v-33M460 428v33h330.98v-33" fill="#444b54"/><path d="M460 332v-30a10 10 0 0 1 10-10h310.98a10 10 0 0 1 10 10v30" fill="#3a414a"/><path d="M460 302a10 10 0 0 1 10-10h310.98a10 10 0 0 1 10 10v180a10 10 0 0 1-10 10H470a10 10 0 0 1-10-10zM460 332h330.98M625.5 332v160" stroke="#979ea8" stroke-width="2" fill="none"/><use xlink:href="#h" transform="matrix(1,0,0,1,470,292) translate(108.56640625 26.5478515625)"/><use xlink:href="#c" transform="matrix(1,0,0,1,465,334.5) translate(70.3095703125 20.0478515625)"/><use xlink:href="#d" transform="matrix(1,0,0,1,630.4892578125,334.5) translate(53.759765625 20.0478515625)"/><use xlink:href="#e" transform="matrix(1,0,0,1,465,366.5) translate(54.498046875 20.0478515625)"/><use xlink:href="#d" transform="matrix(1,0,0,1,630.4892578125,366.5) translate(53.759765625 20.0478515625)"/><use xlink:href="#k" transform="matrix(1,0,0,1,465,398.5) translate(56.7041015625 20.0478515625)"/><use xlink:href="#d" transform="matrix(1,0,0,1,630.4892578125,398.5) translate(53.759765625 20.0478515625)"/><use xlink:href="#l" transform="matrix(1,0,0,1,465,430.5) translate(47.7919921875 20.0478515625)"/><use xlink:href="#b" transform="matrix(1,0,0,1,630.4892578125,430.5) translate(45.90234375 20.0478515625)"/><use xlink:href="#m" transform="matrix(1,0,0,1,465,462.5) translate(57.1875 20.0478515625)"/><use xlink:href="#n" transform="matrix(1,0,0,1,630.4892578125,462.5) translate(59.5166015625 20.0478515625)"/></g><g filter="url(#o)"><path d="M1060 190a10 10 0 0 1 10-10h310.98a10 10 0 0 1 10 10v148a10 10 0 0 1-10 10H1070a10 10 0 0 1-10-10z" fill="#4c535d"/><path d="M1060 252v33h330.98v-33M1060 316v22a10 10 0 0 0 10 10h310.98a10 10 0 0 0 10-10v-22" fill="#444b54"/><path d="M1060 220v-30a10 10 0 0 1 10-10h310.98a10 10 0 0 1 10 10v30" fill="#3a414a"/><path d="M1060 190a10 10 0 0 1 10-10h310.98a10 10 0 0 1 10 10v148a10 10 0 0 1-10 10H1070a10 10 0 0 1-10-10zM1060 220h330.98M1225.5 220v128" stroke="#979ea8" stroke-width="2" fill="none"/><use xlink:href="#n" transform="matrix(1,0,0,1,1070,180) translate(137.0166015625 26.5478515625)"/><use xlink:href="#c" transform="matrix(1,0,0,1,1065,222.5) translate(70.3095703125 20.0478515625)"/><use xlink:href="#d" transform="matrix(1,0,0,1,1230.4892578125,222.5) translate(53.759765625 20.0478515625)"/><use xlink:href="#e" transform="matrix(1,0,0,1,1065,254.5) translate(54.498046875 20.0478515625)"/><use xlink:href="#d" transform="matrix(1,0,0,1,1230.4892578125,254.5) translate(53.759765625 20.0478515625)"/><use xlink:href="#p" transform="matrix(1,0,0,1,1065,286.5) translate(54.5419921875 20.0478515625)"/><use xlink:href="#q" transform="matrix(1,0,0,1,1230.4892578125,286.5) translate(57.9169921875 20.0478515625)"/><use xlink:href="#g" transform="matrix(1,0,0,1,1065,318.5) translate(26.5048828125 20.0478515625)"/><use xlink:href="#h" transform="matrix(1,0,0,1,1230.4892578125,318.5) translate(31.06640625 20.0478515625)"/></g><g filter="url(#o)"><path d="M1060 802a10 10 0 0 1 10-10h310.98a10 10 0 0 1 10 10v148a10 10 0 0 1-10 10H1070a10 10 0 0 1-10-10z" fill="#4c535d"/><path d="M1060 864v33h330.98v-33M1060 928v22a10 10 0 0 0 10 10h310.98a10 10 0 0 0 10-10v-22" fill="#444b54"/><path d="M1060 832v-30a10 10 0 0 1 10-10h310.98a10 10 0 0 1 10 10v30" fill="#3a414a"/><path d="M1060 802a10 10 0 0 1 10-10h310.98a10 10 0 0 1 10 10v148a10 10 0 0 1-10 10H1070a10 10 0 0 1-10-10zM1060 832h330.98M1225.5 832v128" stroke="#979ea8" stroke-width="2" fill="none"/><use xlink:href="#j" transform="matrix(1,0,0,1,1070,792) translate(114.74951171875 26.5478515625)"/><use xlink:href="#c" transform="matrix(1,0,0,1,1065,834.5) translate(70.3095703125 20.0478515625)"/><use xlink:href="#d" transform="matrix(1,0,0,1,1230.4892578125,834.5) translate(53.759765625 20.0478515625)"/><use xlink:href="#e" transform="matrix(1,0,0,1,1065,866.5) translate(54.498046875 20.0478515625)"/><use xlink:href="#d" transform="matrix(1,0,0,1,1230.4892578125,866.5) translate(53.759765625 20.0478515625)"/><use xlink:href="#r" transform="matrix(1,0,0,1,1065,898.5) translate(43.04150390625 20.0478515625)"/><use xlink:href="#b" transform="matrix(1,0,0,1,1230.4892578125,898.5) translate(45.90234375 20.0478515625)"/><use xlink:href="#p" transform="matrix(1,0,0,1,1065,930.5) translate(54.5419921875 20.0478515625)"/><use xlink:href="#q" transform="matrix(1,0,0,1,1230.4892578125,930.5) translate(57.9169921875 20.0478515625)"/></g><g filter="url(#s)"><path d="M1060 464a10 10 0 0 1 10-10h310.98a10 10 0 0 1 10 10v212a10 10 0 0 1-10 10H1070a10 10 0 0 1-10-10z" fill="#4c535d"/><path d="M1060 526v33h330.98v-33M1060 590v33h330.98v-33M1060 654v22a10 10 0 0 0 10 10h310.98a10 10 0 0 0 10-10v-22" fill="#444b54"/><path d="M1060 494v-30a10 10 0 0 1 10-10h310.98a10 10 0 0 1 10 10v30" fill="#3a414a"/><path d="M1060 464a10 10 0 0 1 10-10h310.98a10 10 0 0 1 10 10v212a10 10 0 0 1-10 10H1070a10 10 0 0 1-10-10zM1060 494h330.98M1225.5 494v192" stroke="#979ea8" stroke-width="2" fill="none"/><use xlink:href="#q" transform="matrix(1,0,0,1,1070,454) translate(135.4169921875 26.5478515625)"/><use xlink:href="#c" transform="matrix(1,0,0,1,1065,496.5) translate(70.3095703125 20.0478515625)"/><use xlink:href="#d" transform="matrix(1,0,0,1,1230.4892578125,496.5) translate(53.759765625 20.0478515625)"/><use xlink:href="#e" transform="matrix(1,0,0,1,1065,528.5) translate(54.498046875 20.0478515625)"/><use xlink:href="#d" transform="matrix(1,0,0,1,1230.4892578125,528.5) translate(53.759765625 20.0478515625)"/><use xlink:href="#t" transform="matrix(1,0,0,1,1065,560.5) translate(55.4560546875 20.0478515625)"/><use xlink:href="#d" transform="matrix(1,0,0,1,1230.4892578125,560.5) translate(53.759765625 20.0478515625)"/><use xlink:href="#u" transform="matrix(1,0,0,1,1065,592.5) translate(36.498046875 20.0478515625)"/><use xlink:href="#d" transform="matrix(1,0,0,1,1230.4892578125,592.5) translate(53.759765625 20.0478515625)"/><use xlink:href="#v" transform="matrix(1,0,0,1,1065,624.5) translate(61.93798828125 20.0478515625)"/><use xlink:href="#n" transform="matrix(1,0,0,1,1230.4892578125,624.5) translate(59.5166015625 20.0478515625)"/><use xlink:href="#w" transform="matrix(1,0,0,1,1065,656.5) translate(38.68212890625 20.0478515625)"/><use xlink:href="#j" transform="matrix(1,0,0,1,1230.4892578125,656.5) translate(37.24951171875 20.0478515625)"/></g><path d="M439 444h-47a12 12 0 0 0-12 12v264a12 12 0 0 0 12 12h27M459 444h-20m10-10v20m-10-20v20" stroke="#333" fill="none"/><path d="M458.78 732h-20m20-10l-20 10m20 10l-20-10m0 0c0 5.52-4.48 10-10 10-5.53 0-10-4.48-10-10s4.47-10 10-10c5.52 0 10 4.48 10 10z" stroke="#333" fill="#fff"/><path d="M831.98 476h81.5a12 12 0 0 0 12-12V344.3a12 12 0 0 1 12-12h81.47a.06.06 0 0 0 .05-.04v-.06" stroke="#333" fill="none"/><path d="M792.2 476h20m-20 10l20-10m-20-10l20 10m20 0c0 5.52-4.48 10-10 10s-10-4.48-10-10 4.48-10 10-10 10 4.48 10 10zM1058.78 332.2h-20m20-10l-20 10m20 10l-20-10m0 0c0 5.53-4.48 10-10 10-5.53 0-10-4.47-10-10 0-5.52 4.47-10 10-10 5.52 0 10 4.48 10 10z" stroke="#333" fill="#fff"/><path d="M831.98 764.5h81.5a12 12 0 0 1 12 12v123.72a12 12 0 0 0 12 12H1039" stroke="#333" fill="none"/><path d="M792.2 764.5h20m-20 10l20-10m-20-10l20 10m20 0c0 5.53-4.48 10-10 10s-10-4.47-10-10c0-5.5 4.48-10 10-10s10 4.5 10 10z" stroke="#333" fill="#fff"/><path d="M1058.78 912.22h-20m20-10l-20 10m20 10l-20-10m0-10v20M1431.98 300.1H1478a12 12 0 0 1 12 12v314.3a12 12 0 0 1-12 12h-66.02" stroke="#333" fill="none"/><path d="M1392.2 300.1h20m-20 10l20-10m-20-10l20 10m20 0c0 5.53-4.48 10-10 10s-10-4.47-10-10c0-5.5 4.48-10 10-10s10 4.5 10 10z" stroke="#333" fill="#fff"/><path d="M1391.98 638.4h20m-10 10v-20m10 20v-20M1411.98 944.4H1478a12 12 0 0 0 12-12V679.23a12 12 0 0 0-12-12h-66.02M1392.2 944.4h20m-20 10l20-10m-20-10l20 10m0 10v-20M1391.98 667.2h20m-10 10v-20m10 20v-20" stroke="#333" fill="none"/><defs><path fill="#fff" d="M180 0v-1490h901v168H370v510h643v168H370V0H180" id="x"/><path fill="#fff" d="M628 24c-324 0-524-230-524-574 0-343 198-582 503-582 237 0 487 146 487 559v75H286c9 234 145 362 343 362 132 0 231-58 273-172l174 48C1024-91 857 24 628 24zM287-650h624c-17-190-120-322-304-322-192 0-309 151-320 322" id="y"/><path fill="#fff" d="M471 26C259 26 90-98 90-318c0-256 228-303 435-329 202-27 287-16 287-108 0-139-79-219-234-219-161 0-248 86-283 164l-173-57c86-203 278-265 451-265 150 0 419 46 419 395V0H815v-152h-12C765-73 660 26 471 26zm31-159c199 0 310-134 310-271v-155c-30 35-226 55-295 64-131 17-246 59-246 186 0 116 97 176 231 176" id="z"/><path fill="#fff" d="M598-1118v154H368v674c0 100 37 144 132 144 23 0 62-6 92-12L629-6c-37 13-88 20-134 20-193 0-307-107-307-290v-688H20v-154h168v-266h180v266h230" id="A"/><path fill="#fff" d="M537 14c-226 0-379-139-379-422v-710h180v695c0 172 97 275 253 275 160 0 281-109 281-300v-670h181V0H879v-209C806-46 684 14 537 14" id="B"/><path fill="#fff" d="M158 0v-1118h174v172h12c41-113 157-188 290-188 26 0 70 2 91 3v181c-11-2-60-10-108-10-161 0-279 109-279 260V0H158" id="C"/><g id="b"><use transform="matrix(0.0087890625,0,0,0.0087890625,0,0)" xlink:href="#x"/><use transform="matrix(0.0087890625,0,0,0.0087890625,9.9140625,0)" xlink:href="#y"/><use transform="matrix(0.0087890625,0,0,0.0087890625,20.583984375,0)" xlink:href="#z"/><use transform="matrix(0.0087890625,0,0,0.0087890625,30.69140625,0)" xlink:href="#A"/><use transform="matrix(0.0087890625,0,0,0.0087890625,36.580078125,0)" xlink:href="#B"/><use transform="matrix(0.0087890625,0,0,0.0087890625,47.2236328125,0)" xlink:href="#C"/><use transform="matrix(0.0087890625,0,0,0.0087890625,53.701171875,0)" xlink:href="#y"/></g><path fill="#fff" d="M158 0v-1118h180V0H158zm91-1301c-68 0-125-53-125-119s57-119 125-119c69 0 126 53 126 119s-57 119-126 119" id="D"/><path fill="#fff" d="M577 24c-279 0-473-224-473-580 0-354 195-576 474-576 218 0 287 134 324 193h14v-551h180V0H922v-173h-20C865-111 790 24 577 24zm27-161c203 0 314-172 314-421 0-247-108-413-314-413-212 0-317 181-317 413 0 235 108 421 317 421" id="E"/><g id="c"><use transform="matrix(0.0087890625,0,0,0.0087890625,0,0)" xlink:href="#D"/><use transform="matrix(0.0087890625,0,0,0.0087890625,4.359375,0)" xlink:href="#E"/></g><path fill="#fff" d="M538 24C308 24 148-78 108-271l171-41c32 123 123 178 257 178 156 0 256-77 256-169 0-77-54-128-164-154l-186-44c-203-48-300-148-300-305 0-192 176-326 414-326 230 0 351 112 402 269l-163 42c-31-80-94-158-238-158-133 0-233 69-233 162 0 83 57 129 188 160l169 40c203 48 298 149 298 302 0 196-179 339-441 339" id="F"/><path fill="#fff" d="M338-670V0H158v-1118h173l1 207c72-158 192-221 342-221 226 0 378 139 378 422V0H872v-695c0-172-96-275-252-275-161 0-282 109-282 300" id="G"/><path fill="#fff" d="M611 442c-248 0-391-105-460-228l146-94c47 65 117 165 314 165 178 0 307-82 307-266v-224h-17C863-141 792-18 576-18c-268 0-472-195-472-546 0-346 197-568 476-568 216 0 288 133 326 193h17v-179h175V29c0 289-215 413-487 413zm-5-620c203 0 314-146 314-390 0-237-108-403-314-403-213 0-319 180-319 403 0 230 109 390 319 390" id="H"/><g id="d"><use transform="matrix(0.0087890625,0,0,0.0087890625,0,0)" xlink:href="#F"/><use transform="matrix(0.0087890625,0,0,0.0087890625,9.5009765625,0)" xlink:href="#A"/><use transform="matrix(0.0087890625,0,0,0.0087890625,15.3896484375,0)" xlink:href="#C"/><use transform="matrix(0.0087890625,0,0,0.0087890625,22.447265625,0)" xlink:href="#D"/><use transform="matrix(0.0087890625,0,0,0.0087890625,26.806640625,0)" xlink:href="#G"/><use transform="matrix(0.0087890625,0,0,0.0087890625,37.44140625,0)" xlink:href="#H"/></g><path fill="#fff" d="M158 0v-1118h175l1 205c55-151 181-225 313-225 147 0 245 90 285 228 53-141 190-228 352-228 194 0 352 125 352 384V0h-181v-749c0-161-105-225-225-225-151 0-243 103-243 244V0H807v-767c0-124-93-207-219-207-131 0-250 92-250 270V0H158" id="I"/><g id="e"><use transform="matrix(0.0087890625,0,0,0.0087890625,0,0)" xlink:href="#G"/><use transform="matrix(0.0087890625,0,0,0.0087890625,10.634765625,0)" xlink:href="#z"/><use transform="matrix(0.0087890625,0,0,0.0087890625,20.7421875,0)" xlink:href="#I"/><use transform="matrix(0.0087890625,0,0,0.0087890625,36.509765625,0)" xlink:href="#y"/></g><path fill="#fff" d="M613 24c-304 0-509-231-509-576 0-350 205-580 509-580 216 0 392 114 453 309l-173 49c-33-115-133-197-280-197-223 0-326 196-326 419 0 220 103 415 326 415 150 0 252-85 285-206l172 49C1010-95 832 24 613 24" id="J"/><path fill="#fff" d="M158 418v-1536h174v179h20c37-59 106-193 324-193 279 0 474 222 474 576 0 356-194 580-473 580-213 0-288-135-325-197h-14v591H158zm492-555c209 0 317-186 317-421 0-232-105-413-317-413-206 0-314 166-314 413 0 249 111 421 314 421" id="K"/><path fill="#fff" d="M613 24c-304 0-509-231-509-576 0-350 205-580 509-580 305 0 511 230 511 580 0 345-206 576-511 576zm0-161c226 0 329-195 329-415 0-222-103-419-329-419-223 0-326 196-326 419 0 220 103 415 326 415" id="L"/><g id="f"><use transform="matrix(0.0087890625,0,0,0.0087890625,0,0)" xlink:href="#E"/><use transform="matrix(0.0087890625,0,0,0.0087890625,11.021484375,0)" xlink:href="#y"/><use transform="matrix(0.0087890625,0,0,0.0087890625,21.515625,0)" xlink:href="#F"/><use transform="matrix(0.0087890625,0,0,0.0087890625,31.0166015625,0)" xlink:href="#J"/><use transform="matrix(0.0087890625,0,0,0.0087890625,41.2998046875,0)" xlink:href="#C"/><use transform="matrix(0.0087890625,0,0,0.0087890625,48.357421875,0)" xlink:href="#D"/><use transform="matrix(0.0087890625,0,0,0.0087890625,52.716796875,0)" xlink:href="#K"/><use transform="matrix(0.0087890625,0,0,0.0087890625,63.73828125,0)" xlink:href="#A"/><use transform="matrix(0.0087890625,0,0,0.0087890625,69.626953125,0)" xlink:href="#D"/><use transform="matrix(0.0087890625,0,0,0.0087890625,73.986328125,0)" xlink:href="#L"/><use transform="matrix(0.0087890625,0,0,0.0087890625,84.779296875,0)" xlink:href="#G"/></g><g id="g"><use transform="matrix(0.0087890625,0,0,0.0087890625,0,0)" xlink:href="#K"/><use transform="matrix(0.0087890625,0,0,0.0087890625,11.021484375,0)" xlink:href="#y"/><use transform="matrix(0.0087890625,0,0,0.0087890625,21.515625,0)" xlink:href="#C"/><use transform="matrix(0.0087890625,0,0,0.0087890625,28.5732421875,0)" xlink:href="#I"/><use transform="matrix(0.0087890625,0,0,0.0087890625,44.3408203125,0)" xlink:href="#D"/><use transform="matrix(0.0087890625,0,0,0.0087890625,48.7001953125,0)" xlink:href="#F"/><use transform="matrix(0.0087890625,0,0,0.0087890625,58.201171875,0)" xlink:href="#F"/><use transform="matrix(0.0087890625,0,0,0.0087890625,67.7021484375,0)" xlink:href="#D"/><use transform="matrix(0.0087890625,0,0,0.0087890625,72.0615234375,0)" xlink:href="#L"/><use transform="matrix(0.0087890625,0,0,0.0087890625,82.8544921875,0)" xlink:href="#G"/><use transform="matrix(0.0087890625,0,0,0.0087890625,93.4892578125,0)" xlink:href="#F"/></g><path fill="#fff" d="M180 0v-1490h510c348 0 508 209 508 474 0 266-160 477-507 477H370V0H180zm190-706h312c236 0 327-133 327-310 0-176-91-307-329-307H370v617" id="M"/><g id="h"><use transform="matrix(0.0087890625,0,0,0.0087890625,0,0)" xlink:href="#M"/><use transform="matrix(0.0087890625,0,0,0.0087890625,11.3994140625,0)" xlink:href="#y"/><use transform="matrix(0.0087890625,0,0,0.0087890625,21.8935546875,0)" xlink:href="#C"/><use transform="matrix(0.0087890625,0,0,0.0087890625,28.951171875,0)" xlink:href="#I"/><use transform="matrix(0.0087890625,0,0,0.0087890625,44.71875,0)" xlink:href="#D"/><use transform="matrix(0.0087890625,0,0,0.0087890625,49.078125,0)" xlink:href="#F"/><use transform="matrix(0.0087890625,0,0,0.0087890625,58.5791015625,0)" xlink:href="#F"/><use transform="matrix(0.0087890625,0,0,0.0087890625,68.080078125,0)" xlink:href="#D"/><use transform="matrix(0.0087890625,0,0,0.0087890625,72.439453125,0)" xlink:href="#L"/><use transform="matrix(0.0087890625,0,0,0.0087890625,83.232421875,0)" xlink:href="#G"/></g><g id="i"><use transform="matrix(0.0087890625,0,0,0.0087890625,0,0)" xlink:href="#J"/><use transform="matrix(0.0087890625,0,0,0.0087890625,10.283203125,0)" xlink:href="#L"/><use transform="matrix(0.0087890625,0,0,0.0087890625,21.076171875,0)" xlink:href="#I"/><use transform="matrix(0.0087890625,0,0,0.0087890625,36.84375,0)" xlink:href="#K"/><use transform="matrix(0.0087890625,0,0,0.0087890625,48.041015625,0)" xlink:href="#z"/><use transform="matrix(0.0087890625,0,0,0.0087890625,58.1484375,0)" xlink:href="#G"/><use transform="matrix(0.0087890625,0,0,0.0087890625,68.783203125,0)" xlink:href="#D"/><use transform="matrix(0.0087890625,0,0,0.0087890625,73.142578125,0)" xlink:href="#y"/><use transform="matrix(0.0087890625,0,0,0.0087890625,83.63671875,0)" xlink:href="#F"/></g><path fill="#fff" d="M783 20c-382 0-661-292-661-764 0-473 279-766 661-766 302 0 548 182 601 489h-190c-42-204-217-313-411-313-268 0-476 208-476 590 0 381 209 588 476 588 195 0 369-110 411-313h190c-52 303-296 489-601 489" id="N"/><path fill="#fff" d="M140 405l46-156c120 36 205 19 263-150l32-93L54-1118h197c107 313 237 620 324 950 87-331 219-637 326-950h196L606 167c-68 178-176 259-334 259-64 0-113-12-132-21" id="O"/><g id="j"><use transform="matrix(0.0087890625,0,0,0.0087890625,0,0)" xlink:href="#N"/><use transform="matrix(0.0087890625,0,0,0.0087890625,13.1484375,0)" xlink:href="#L"/><use transform="matrix(0.0087890625,0,0,0.0087890625,23.94140625,0)" xlink:href="#I"/><use transform="matrix(0.0087890625,0,0,0.0087890625,39.708984375,0)" xlink:href="#K"/><use transform="matrix(0.0087890625,0,0,0.0087890625,50.90625,0)" xlink:href="#z"/><use transform="matrix(0.0087890625,0,0,0.0087890625,61.013671875,0)" xlink:href="#G"/><use transform="matrix(0.0087890625,0,0,0.0087890625,71.384765625,0)" xlink:href="#O"/></g><filter id="a" filterUnits="objectBoundingBox" x="-.15" y="-.14" width="1.29" height="1.48"><feOffset result="offOut" in="SourceAlpha" dy="19"/><feGaussianBlur result="blurOut" in="offOut" stdDeviation="24"/><feColorMatrix result="colorOut" in="blurOut" values="0 0 0 0 0 0 0 0 0 0 0 0 0 0 0 0 0 0 0.18823529411764706 0"/><feBlend in="SourceGraphic" in2="colorOut"/></filter><g id="k"><use transform="matrix(0.0087890625,0,0,0.0087890625,0,0)" xlink:href="#J"/><use transform="matrix(0.0087890625,0,0,0.0087890625,10.283203125,0)" xlink:href="#L"/><use transform="matrix(0.0087890625,0,0,0.0087890625,21.076171875,0)" xlink:href="#E"/><use transform="matrix(0.0087890625,0,0,0.0087890625,32.09765625,0)" xlink:href="#y"/></g><path fill="#fff" d="M678-1118v154H420V0H240v-964H20v-154h220v-149c0-194 155-293 318-293 85 0 141 18 168 30l-50 154c-19-6-47-17-97-17-111 0-159 58-159 166v109h258" id="P"/><g id="l"><use transform="matrix(0.0087890625,0,0,0.0087890625,0,0)" xlink:href="#P"/><use transform="matrix(0.0087890625,0,0,0.0087890625,6.134765625,0)" xlink:href="#y"/><use transform="matrix(0.0087890625,0,0,0.0087890625,16.8046875,0)" xlink:href="#z"/><use transform="matrix(0.0087890625,0,0,0.0087890625,26.912109375,0)" xlink:href="#A"/><use transform="matrix(0.0087890625,0,0,0.0087890625,32.80078125,0)" xlink:href="#B"/><use transform="matrix(0.0087890625,0,0,0.0087890625,43.4443359375,0)" xlink:href="#C"/><use transform="matrix(0.0087890625,0,0,0.0087890625,49.921875,0)" xlink:href="#y"/></g><path fill="#fff" d="M338-1490V0H158v-1490h180" id="Q"/><g id="m"><use transform="matrix(0.0087890625,0,0,0.0087890625,0,0)" xlink:href="#C"/><use transform="matrix(0.0087890625,0,0,0.0087890625,6.4775390625,0)" xlink:href="#L"/><use transform="matrix(0.0087890625,0,0,0.0087890625,17.2705078125,0)" xlink:href="#Q"/><use transform="matrix(0.0087890625,0,0,0.0087890625,21.6298828125,0)" xlink:href="#y"/><use transform="matrix(0.0087890625,0,0,0.0087890625,32.1240234375,0)" xlink:href="#F"/></g><path fill="#fff" d="M180 0v-1490h510c348 0 508 194 508 460 0 198-88 351-276 417L1256 0h-220L726-579c-117 2-238 0-356 1V0H180zm190-747h312c235 0 327-108 327-283 0-177-92-293-329-293H370v576" id="R"/><g id="n"><use transform="matrix(0.0087890625,0,0,0.0087890625,0,0)" xlink:href="#R"/><use transform="matrix(0.0087890625,0,0,0.0087890625,11.3203125,0)" xlink:href="#L"/><use transform="matrix(0.0087890625,0,0,0.0087890625,22.11328125,0)" xlink:href="#Q"/><use transform="matrix(0.0087890625,0,0,0.0087890625,26.47265625,0)" xlink:href="#y"/></g><g id="p"><use transform="matrix(0.0087890625,0,0,0.0087890625,0,0)" xlink:href="#B"/><use transform="matrix(0.0087890625,0,0,0.0087890625,10.6435546875,0)" xlink:href="#F"/><use transform="matrix(0.0087890625,0,0,0.0087890625,20.14453125,0)" xlink:href="#y"/><use transform="matrix(0.0087890625,0,0,0.0087890625,30.638671875,0)" xlink:href="#C"/><use transform="matrix(0.0087890625,0,0,0.0087890625,37.4150390625,0)" xlink:href="#F"/></g><path fill="#fff" d="M763 24c-353 0-583-224-583-531v-983h190v968c0 214 149 370 393 370 243 0 391-156 391-370v-968h190v983c0 307-230 531-581 531" id="S"/><g id="q"><use transform="matrix(0.0087890625,0,0,0.0087890625,0,0)" xlink:href="#S"/><use transform="matrix(0.0087890625,0,0,0.0087890625,13.39453125,0)" xlink:href="#F"/><use transform="matrix(0.0087890625,0,0,0.0087890625,22.8955078125,0)" xlink:href="#y"/><use transform="matrix(0.0087890625,0,0,0.0087890625,33.3896484375,0)" xlink:href="#C"/></g><filter id="o" filterUnits="objectBoundingBox" x="-.15" y="-.17" width="1.29" height="1.57"><feOffset result="offOut" in="SourceAlpha" dy="19"/><feGaussianBlur result="blurOut" in="offOut" stdDeviation="24"/><feColorMatrix result="colorOut" in="blurOut" values="0 0 0 0 0 0 0 0 0 0 0 0 0 0 0 0 0 0 0.18823529411764706 0"/><feBlend in="SourceGraphic" in2="colorOut"/></filter><g id="r"><use transform="matrix(0.0087890625,0,0,0.0087890625,0,0)" xlink:href="#P"/><use transform="matrix(0.0087890625,0,0,0.0087890625,6.134765625,0)" xlink:href="#y"/><use transform="matrix(0.0087890625,0,0,0.0087890625,16.8046875,0)" xlink:href="#z"/><use transform="matrix(0.0087890625,0,0,0.0087890625,26.912109375,0)" xlink:href="#A"/><use transform="matrix(0.0087890625,0,0,0.0087890625,32.80078125,0)" xlink:href="#B"/><use transform="matrix(0.0087890625,0,0,0.0087890625,43.4443359375,0)" xlink:href="#C"/><use transform="matrix(0.0087890625,0,0,0.0087890625,49.921875,0)" xlink:href="#y"/><use transform="matrix(0.0087890625,0,0,0.0087890625,60.416015625,0)" xlink:href="#F"/></g><g id="t"><use transform="matrix(0.0087890625,0,0,0.0087890625,0,0)" xlink:href="#y"/><use transform="matrix(0.0087890625,0,0,0.0087890625,10.494140625,0)" xlink:href="#I"/><use transform="matrix(0.0087890625,0,0,0.0087890625,26.26171875,0)" xlink:href="#z"/><use transform="matrix(0.0087890625,0,0,0.0087890625,36.369140625,0)" xlink:href="#D"/><use transform="matrix(0.0087890625,0,0,0.0087890625,40.728515625,0)" xlink:href="#Q"/></g><path fill="#fff" d="M409 0L70-1118h191c89 329 165 560 243 925 75-353 154-601 240-925h192c85 325 161 564 235 922 77-354 157-598 244-922h191L1267 0h-179c-86-307-176-590-250-913C763-588 675-308 588 0H409" id="T"/><g id="u"><use transform="matrix(0.0087890625,0,0,0.0087890625,0,0)" xlink:href="#K"/><use transform="matrix(0.0087890625,0,0,0.0087890625,11.197265625,0)" xlink:href="#z"/><use transform="matrix(0.0087890625,0,0,0.0087890625,21.3046875,0)" xlink:href="#F"/><use transform="matrix(0.0087890625,0,0,0.0087890625,30.8056640625,0)" xlink:href="#F"/><use transform="matrix(0.0087890625,0,0,0.0087890625,40.306640625,0)" xlink:href="#T"/><use transform="matrix(0.0087890625,0,0,0.0087890625,54.7119140625,0)" xlink:href="#L"/><use transform="matrix(0.0087890625,0,0,0.0087890625,65.5048828125,0)" xlink:href="#C"/><use transform="matrix(0.0087890625,0,0,0.0087890625,71.982421875,0)" xlink:href="#E"/></g><g id="v"><use transform="matrix(0.0087890625,0,0,0.0087890625,0,0)" xlink:href="#C"/><use transform="matrix(0.0087890625,0,0,0.0087890625,6.4775390625,0)" xlink:href="#L"/><use transform="matrix(0.0087890625,0,0,0.0087890625,17.2705078125,0)" xlink:href="#Q"/><use transform="matrix(0.0087890625,0,0,0.0087890625,21.6298828125,0)" xlink:href="#y"/></g><g id="w"><use transform="matrix(0.0087890625,0,0,0.0087890625,0,0)" xlink:href="#J"/><use transform="matrix(0.0087890625,0,0,0.0087890625,10.283203125,0)" xlink:href="#L"/><use transform="matrix(0.0087890625,0,0,0.0087890625,21.076171875,0)" xlink:href="#I"/><use transform="matrix(0.0087890625,0,0,0.0087890625,36.84375,0)" xlink:href="#K"/><use transform="matrix(0.0087890625,0,0,0.0087890625,48.041015625,0)" xlink:href="#z"/><use transform="matrix(0.0087890625,0,0,0.0087890625,58.1484375,0)" xlink:href="#G"/><use transform="matrix(0.0087890625,0,0,0.0087890625,68.51953125,0)" xlink:href="#O"/></g><filter id="s" filterUnits="objectBoundingBox" x="-.15" y="-.13" width="1.29" height="1.41"><feOffset result="offOut" in="SourceAlpha" dy="19"/><feGaussianBlur result="blurOut" in="offOut" stdDeviation="24"/><feColorMatrix result="colorOut" in="blurOut" values="0 0 0 0 0 0 0 0 0 0 0 0 0 0 0 0 0 0 0.18823529411764706 0"/><feBlend in="SourceGraphic" in2="colorOut"/></filter></defs></g></svg>